<svg width="173" height="197" viewBox="0 0 173 197" fill="none" xmlns="http://www.w3.org/2000/svg">
<g clip-path="url(#clip0_108_14)">
<path d="M172.637 51.8446C172.634 51.0194 172.414 50.2092 171.998 49.4952C171.583 48.7811 170.986 48.1881 170.268 47.7756L88.9708 1.15685C88.2547 0.750378 87.4447 0.536621 86.6199 0.536621C85.7957 0.536621 84.9856 0.750378 84.2696 1.15685L2.94914 47.8322C2.23263 48.2454 1.63778 48.8388 1.22418 49.5529C0.810575 50.2671 0.592752 51.0769 0.592529 51.9013V145.297C0.593907 146.123 0.813454 146.934 1.22911 147.648C1.64477 148.362 2.2419 148.955 2.96053 149.366L84.2467 195.94C84.9622 196.348 85.7728 196.563 86.5976 196.563C87.4225 196.563 88.2331 196.348 88.9486 195.94L170.268 149.366C170.989 148.957 171.587 148.364 172.003 147.649C172.419 146.935 172.637 146.123 172.637 145.297V51.8446Z" fill="#FF0000"/>
<path d="M164.53 54.079C164.52 53.8879 164.462 53.7024 164.36 53.5399C164.259 53.3774 164.118 53.2431 163.95 53.1496L87.5027 9.25122C87.3291 9.15173 87.1333 9.09937 86.9331 9.09937C86.7335 9.09937 86.537 9.15173 86.364 9.25122L9.95061 53.1043C9.85379 53.1592 9.76556 53.2279 9.68882 53.3083L9.62049 53.3763C9.56902 53.4239 9.52317 53.4771 9.48388 53.535C9.48388 53.535 9.48388 53.6143 9.48388 53.6597C9.45218 53.7372 9.42555 53.8167 9.40417 53.8977C9.40417 53.8977 9.40417 53.9884 9.40417 54.0337C9.40417 54.079 9.40417 54.1017 9.40417 54.1357V142.034C9.41616 142.223 9.47554 142.407 9.57699 142.567C9.67844 142.727 9.81863 142.86 9.98478 142.953L86.4097 186.738C86.5865 186.837 86.7866 186.889 86.9899 186.885C87.1932 186.889 87.394 186.837 87.5707 186.738L164.03 142.953C164.207 142.853 164.355 142.708 164.457 142.533C164.559 142.357 164.612 142.158 164.61 141.955L164.53 54.079ZM108.45 111.703L122.704 119.875L86.9219 140.391L51.1856 119.875L66.2021 111.205C66.469 111.054 66.6655 110.805 66.7477 110.51C66.8298 110.216 66.7909 109.901 66.6402 109.635C66.4894 109.369 66.2386 109.174 65.9426 109.092C65.6467 109.01 65.3309 109.048 65.0634 109.198L48.8746 118.504L13.1383 97.9886L48.8746 77.4734L71.2568 90.3266C71.4323 90.4303 71.6331 90.4853 71.837 90.4853C72.1026 90.5069 72.3671 90.4347 72.5852 90.2821C72.8027 90.1296 72.9596 89.9054 73.0288 89.6498C73.098 89.3935 73.0745 89.1211 72.9633 88.8803C72.8515 88.6394 72.6587 88.4455 72.4178 88.3319L51.1856 76.1475L86.9219 55.6319L122.669 76.1698L102.04 87.9916C101.907 88.0657 101.79 88.1658 101.696 88.2856C101.602 88.406 101.534 88.5437 101.494 88.6907C101.455 88.8377 101.446 88.9908 101.467 89.1415C101.489 89.2922 101.54 89.4367 101.62 89.567C101.717 89.7498 101.863 89.9023 102.042 90.0086C102.22 90.1142 102.425 90.1697 102.633 90.1679C102.837 90.1679 103.038 90.1129 103.213 90.0092L125.004 77.5414L160.694 98.1022L124.992 118.504L109.577 109.663C109.31 109.513 108.994 109.475 108.698 109.557C108.402 109.638 108.152 109.834 108 110.099C107.849 110.366 107.811 110.681 107.893 110.975C107.975 111.269 108.171 111.519 108.439 111.669L108.45 111.703ZM11.6811 139.915V99.8024L46.5863 119.841L11.6811 139.915ZM11.6811 56.1419L46.5521 76.1475L11.6469 96.1866L11.6811 56.1419ZM162.254 56.1419V96.2317L127.337 76.1698L162.254 56.1419ZM162.254 99.8363V139.813L127.383 119.83L162.254 99.8363ZM86.9219 11.5861L161.127 54.1244L124.992 74.8328L87.5027 53.297C87.3291 53.1975 87.1333 53.1451 86.9331 53.1451C86.7335 53.1451 86.537 53.1975 86.364 53.297L48.8973 74.8328L12.8309 54.1244L86.9219 11.5861ZM86.9219 184.403L12.6943 141.91L48.829 121.168L86.2732 142.703C86.4592 142.8 86.6661 142.85 86.8762 142.851C87.0949 142.852 87.3106 142.798 87.5027 142.692L124.981 121.156L161.127 141.876L86.9219 184.403Z" fill="white"/>
<path d="M52.7223 149.788C51.5567 150.543 50.1963 150.944 48.806 150.944C47.4156 150.944 46.0552 150.543 44.8897 149.788V147.646C44.8847 147.547 44.9006 147.45 44.936 147.358C44.9715 147.266 45.0258 147.183 45.0955 147.114C45.1652 147.045 45.2488 146.99 45.3408 146.955C45.4328 146.92 45.5312 146.904 45.6296 146.909C45.7277 146.906 45.8253 146.922 45.9166 146.959C46.0078 146.995 46.0906 147.048 46.1599 147.118C46.2293 147.187 46.2837 147.27 46.3198 147.36C46.3559 147.451 46.3728 147.548 46.3696 147.646V148.87C47.0867 149.356 47.9388 149.606 48.806 149.584C49.6765 149.604 50.5318 149.354 51.2536 148.87V146.115L45.8574 144.472C45.6361 144.411 45.4424 144.276 45.308 144.091C45.1735 143.906 45.1064 143.68 45.1174 143.452V139.621C46.2302 138.894 47.5321 138.507 48.8629 138.507C50.1937 138.507 51.4955 138.894 52.6084 139.621V141.514C52.6133 141.612 52.5975 141.71 52.562 141.801C52.5266 141.893 52.4723 141.976 52.4025 142.046C52.3328 142.115 52.2493 142.169 52.1573 142.204C52.0653 142.24 51.9669 142.256 51.8684 142.251C51.7704 142.254 51.6727 142.236 51.5815 142.201C51.4903 142.165 51.4075 142.111 51.3381 142.042C51.2687 141.973 51.2144 141.89 51.1783 141.799C51.1422 141.708 51.1252 141.612 51.1284 141.514V140.517C50.4535 140.076 49.6581 139.854 48.8515 139.882C48.0455 139.859 47.2516 140.08 46.5746 140.517V143.066L51.9822 144.733C52.1924 144.795 52.3764 144.923 52.506 145.099C52.6356 145.275 52.7035 145.489 52.6995 145.708L52.7223 149.788Z" fill="white"/>
<path d="M130.149 150.013C130.151 150.108 130.133 150.202 130.097 150.289C130.06 150.376 130.006 150.456 129.938 150.522C129.87 150.588 129.788 150.639 129.699 150.672C129.61 150.706 129.516 150.72 129.421 150.716H123.728V139.381C123.728 139.186 123.806 138.999 123.945 138.86C124.084 138.722 124.272 138.644 124.469 138.644C124.664 138.644 124.853 138.722 124.991 138.86C125.13 138.999 125.208 139.186 125.208 139.381V149.356H129.444C129.533 149.353 129.623 149.367 129.707 149.398C129.791 149.43 129.867 149.477 129.933 149.538C129.999 149.6 130.052 149.673 130.089 149.755C130.126 149.835 130.146 149.924 130.149 150.013Z" fill="white"/>
<path d="M91.1345 40.397C89.9711 41.1546 88.6075 41.5493 87.2179 41.5305H83.3359V29.5839H86.9788C88.3684 29.5665 89.732 29.961 90.8954 30.7174V34.6277C90.4382 34.9365 89.9396 35.1806 89.415 35.3532C90.0261 35.5377 90.6057 35.8128 91.1345 36.1692V40.397ZM89.4496 34.0837V31.7034C88.728 31.2269 87.879 30.978 87.0128 30.9894H84.736V34.7865H87.0128C87.879 34.8115 88.7311 34.5657 89.4496 34.0837ZM89.711 39.4449V36.8947C88.9819 36.4162 88.1256 36.1674 87.2519 36.1806H84.7817V40.1363H87.2519C88.1243 40.1672 88.9844 39.9254 89.711 39.4449Z" fill="white"/>
<path d="M106.97 117.245C106.981 117.742 106.891 118.235 106.708 118.697C106.525 119.158 106.25 119.579 105.901 119.934C105.552 120.289 105.136 120.57 104.676 120.763C104.216 120.955 103.723 121.054 103.224 121.054C102.401 121.102 101.587 120.859 100.927 120.367C100.266 119.875 99.8019 119.167 99.6153 118.367L95.6536 105.412H78.2467L74.1707 118.583C73.9625 119.317 73.512 119.959 72.8923 120.407C72.2732 120.855 71.5207 121.083 70.7558 121.054C69.8222 121.036 68.9313 120.659 68.2714 120.002C67.6109 119.345 67.2321 118.458 67.2148 117.529C67.226 117.169 67.2754 116.812 67.3631 116.463L81.1611 71.0232C81.2754 70.3537 81.6362 69.751 82.1725 69.3317C82.7095 68.9124 83.3836 68.7073 84.0638 68.7567H90.2912C90.9708 68.7129 91.6424 68.9198 92.1781 69.3379C92.7138 69.7559 93.0753 70.3562 93.1945 71.0232L106.776 115.976C106.901 116.388 106.966 116.815 106.97 117.245ZM93.8093 98.4982L86.9789 75.3195H86.9103L80.0792 98.4982H93.8093Z" fill="white"/>
</g>
<defs>
<clipPath id="clip0_108_14">
<rect width="173" height="197" fill="none"/>
</clipPath>
</defs>
</svg>
