<svg width="131" height="33" viewBox="0 0 131 33" fill="none" xmlns="http://www.w3.org/2000/svg">
<path fill-rule="evenodd" clip-rule="evenodd" d="M0 0.116455H13.5795C15.8126 0.116455 17.7795 0.412425 19.4802 1.00436C21.1809 1.5815 22.5932 2.35102 23.7171 3.31293C24.8559 4.26003 25.7136 5.34032 26.2904 6.55379C26.8672 7.75247 27.1555 8.96594 27.1555 10.1942C27.1555 11.1561 27.0594 12.1106 26.8672 13.0577C26.6749 13.99 26.3348 14.8779 25.8467 15.7214C25.3587 16.5502 24.6858 17.3049 23.8281 17.9856C22.9851 18.6515 21.9055 19.1917 20.5893 19.606C20.7816 20.2276 21.1069 20.9971 21.5654 21.9146C22.0238 22.8321 22.5562 23.8236 23.1626 24.8891C23.7689 25.9546 24.4196 27.0571 25.1147 28.1966C25.8098 29.336 27.1555 31.504 27.1555 31.504C24.5215 32.2397 17.691 32.2397 15.2388 31.504C15.2388 31.504 13.1545 27.7032 12.5292 20.8491H9.65734V31.504C6.0949 32.2397 3.1878 32.2397 0 31.504V23.04C1.65841 9.71085 12.844 7.08007 17.4864 6.92532C8.24799 10.0203 5.41615 15.4364 4.79716 18.4665H8.24799C21.3551 18.4665 20.7361 5.37782 20.7361 5.37782C20.7361 5.37782 16.2485 3.35588 11.4513 3.67563C6.65413 3.99538 1.23798 6.30641 0 12.4945V0.116455ZM117.14 31.8451H124.772L124.719 17.3364H130.386C130.386 16.5878 130.386 12.9153 126.877 12.9153H124.719C124.719 12.4709 124.737 12.0381 124.772 11.6171C124.819 11.1843 124.918 10.8042 125.07 10.4767C125.234 10.1492 125.468 9.88608 125.772 9.68725C126.088 9.48842 126.514 9.389 127.053 9.389H128.281H130.017C130.017 9.389 130.017 4.47673 125.474 4.47673C124.351 4.47673 123.069 4.47673 121.912 4.88023C120.906 5.23111 120.047 5.76327 119.333 6.47672C118.62 7.19017 118.07 8.08491 117.684 9.16093C117.298 10.2253 117.105 11.4767 117.105 12.9153H113.404C113.404 12.9153 113.404 17.3364 116.211 17.3364H117.14V31.8451ZM94.7544 31.3715C95.4445 31.582 96.1637 31.6873 96.9123 31.6873C97.614 31.6873 98.3216 31.6054 99.0351 31.4416C99.7485 31.2779 100.421 31.0381 101.053 30.7223C101.684 30.4065 102.251 30.0264 102.754 29.582C103.257 29.1258 103.649 28.6112 103.93 28.0381V31.1785C105.86 32.3013 109.228 32.3013 111.158 31.1785V20.389C111.158 19.2545 111.023 18.2545 110.754 17.389C110.485 16.5235 110.111 15.775 109.632 15.1434C109.164 14.5001 108.596 13.9621 107.93 13.5294C107.275 13.0966 106.556 12.7516 105.772 12.4943C105 12.237 104.175 12.0557 103.298 11.9504C102.433 11.8334 101.55 11.775 100.649 11.775C99.924 11.775 99.1871 11.8042 98.4386 11.8627C97.6901 11.9212 95.8947 12.0908 94.6316 12.6522C92.8039 13.4645 92.2456 16.0206 92.3509 17.7048C92.3509 17.7048 93.2047 17.4826 93.7193 17.3539C94.2456 17.2253 94.7953 17.1083 95.3684 17.003C95.9415 16.8861 96.5263 16.7925 97.1228 16.7223C97.731 16.6405 98.3216 16.5995 98.8947 16.5995C99.5146 16.5995 100.105 16.658 100.667 16.775C101.228 16.8919 101.719 17.0966 102.14 17.389C102.561 17.6697 102.901 18.0557 103.158 18.5469C103.415 19.0264 103.556 19.6346 103.579 20.3715C103.181 20.3364 102.754 20.3071 102.298 20.2837C101.842 20.2603 101.368 20.2487 100.877 20.2487C100.164 20.2487 99.4269 20.2837 98.6667 20.3539C97.9181 20.4124 97.1871 20.5294 96.4737 20.7048C95.7602 20.8685 95.0819 21.1025 94.4386 21.4065C93.807 21.6989 93.2515 22.0732 92.7719 22.5294C92.3041 22.9855 91.9298 23.5352 91.6491 24.1785C91.3684 24.8101 91.2281 25.5586 91.2281 26.4241C91.2281 27.3247 91.3801 28.1083 91.6842 28.775C92 29.4299 92.4211 29.9738 92.9474 30.4065C93.4737 30.8393 94.076 31.1609 94.7544 31.3715ZM101 27.3013C100.579 27.4767 100.205 27.5644 99.8772 27.5644C99.655 27.5644 99.4269 27.5352 99.193 27.4767C98.9708 27.4182 98.7661 27.3188 98.5789 27.1785C98.4035 27.0264 98.2573 26.8334 98.1404 26.5995C98.0234 26.3656 97.9649 26.0732 97.9649 25.7223C97.9649 25.2779 98.1228 24.8861 98.4386 24.5469C98.7544 24.2077 99.1579 23.9212 99.6491 23.6873C100.14 23.4533 100.678 23.2779 101.263 23.1609C101.86 23.044 102.439 22.9855 103 22.9855H103.579C103.579 23.7808 103.444 24.465 103.175 25.0381C102.918 25.6112 102.596 26.0849 102.211 26.4592C101.836 26.8334 101.433 27.1142 101 27.3013ZM84.5848 31.0908C82.7585 31.6902 81.6002 31.6889 80.3022 31.6874L80.1053 31.6873C78.5965 31.6873 77.1579 31.4884 75.7895 31.0908C74.4211 30.6931 73.2164 30.0732 72.1754 29.2311C71.1345 28.389 70.3041 27.3247 69.6842 26.0381C69.076 24.7399 68.7719 23.196 68.7719 21.4065C68.7719 20.389 68.9298 19.4475 69.2456 18.582C69.5614 17.7048 69.9883 16.9095 70.5263 16.196C71.076 15.4826 71.7135 14.851 72.4386 14.3013C73.1754 13.7516 73.9591 13.2896 74.7895 12.9153C75.6316 12.5411 76.4971 12.2603 77.386 12.0732C78.2749 11.8744 79.1462 11.775 80 11.775C81.345 11.775 82.5322 11.927 83.5614 12.2311C84.5907 12.5235 85.4445 12.9212 86.1228 13.4241C86.8129 13.927 87.3333 14.5118 87.6842 15.1785C88.0351 15.8451 88.2105 16.5527 88.2105 17.3013C88.2105 18.2136 88.0526 18.9913 87.7368 19.6346C87.4328 20.2779 87.0175 20.8218 86.4912 21.2662C85.9766 21.6989 85.3743 22.044 84.6842 22.3013C84.0059 22.5469 83.2866 22.7399 82.5263 22.8802C81.7661 23.0089 80.9883 23.0908 80.193 23.1258C79.4094 23.1609 78.6608 23.1785 77.9474 23.1785H77.2281C77.0059 23.1668 76.7836 23.1609 76.5614 23.1609C76.655 23.8276 76.8363 24.389 77.1053 24.8451C77.386 25.3013 77.731 25.6756 78.1404 25.968C78.5614 26.2487 79.0409 26.4533 79.579 26.582C80.1287 26.6989 80.7135 26.7574 81.3333 26.7574C81.8012 26.7574 82.2982 26.7223 82.8246 26.6522C83.3626 26.582 83.9006 26.4884 84.4386 26.3715C84.9883 26.2428 85.5322 26.1025 86.0702 25.9504C86.6199 25.7867 87.6491 25.4416 87.6491 25.4416C88 27.5294 86.503 30.4611 84.5848 31.0908ZM76.4035 20.4592C76.6842 20.4475 77.0409 20.4299 77.4737 20.4065C77.9181 20.3832 78.386 20.3422 78.8772 20.2837C79.3684 20.2253 79.8597 20.1434 80.3509 20.0381C80.8421 19.9329 81.2866 19.7984 81.6842 19.6346C82.0819 19.4709 82.4035 19.2662 82.6491 19.0206C82.8947 18.775 83.0175 18.4767 83.0175 18.1258C83.0175 17.5294 82.7778 17.0557 82.2982 16.7048C81.8304 16.3422 81.1754 16.1609 80.3333 16.1609C79.9474 16.1609 79.5322 16.2194 79.0877 16.3364C78.6433 16.4416 78.2281 16.6522 77.8421 16.968C77.4561 17.2837 77.1287 17.7223 76.8597 18.2837C76.5907 18.8451 76.4386 19.5703 76.4035 20.4592ZM59.7193 10.4655C59.7193 5.34306 52.4912 6.57046 52.4912 6.57046V31.3775H68.7719C68.7719 31.3775 68.7719 26.7461 64.9123 26.3249H59.7193V10.4655ZM45.2866 31.0908C43.4603 31.6902 42.3019 31.6889 41.004 31.6874L40.807 31.6873C39.2982 31.6873 37.8596 31.4884 36.4912 31.0908C35.1228 30.6931 33.9181 30.0732 32.8772 29.2311C31.8363 28.389 31.0058 27.3247 30.386 26.0381C29.7778 24.7399 29.4737 23.196 29.4737 21.4065C29.4737 20.389 29.6316 19.4475 29.9474 18.582C30.2632 17.7048 30.6901 16.9095 31.2281 16.196C31.7778 15.4826 32.4152 14.851 33.1404 14.3013C33.8772 13.7516 34.6608 13.2896 35.4912 12.9153C36.3333 12.5411 37.1988 12.2603 38.0877 12.0732C38.9766 11.8744 39.848 11.775 40.7018 11.775C42.0468 11.775 43.2339 11.927 44.2632 12.2311C45.2924 12.5235 46.1462 12.9212 46.8246 13.4241C47.5146 13.927 48.0351 14.5118 48.386 15.1785C48.7368 15.8451 48.9123 16.5527 48.9123 17.3013C48.9123 18.2136 48.7544 18.9913 48.4386 19.6346C48.1345 20.2779 47.7193 20.8218 47.193 21.2662C46.6784 21.6989 46.076 22.044 45.386 22.3013C44.7076 22.5469 43.9883 22.7399 43.2281 22.8802C42.4678 23.0089 41.6901 23.0908 40.8947 23.1258C40.1111 23.1609 39.3626 23.1785 38.6491 23.1785H37.9298C37.7076 23.1668 37.4854 23.1609 37.2632 23.1609C37.3567 23.8276 37.538 24.389 37.807 24.8451C38.0877 25.3013 38.4328 25.6756 38.8421 25.968C39.2632 26.2487 39.7427 26.4533 40.2807 26.582C40.8304 26.6989 41.4152 26.7574 42.0351 26.7574C42.5029 26.7574 43 26.7223 43.5263 26.6522C44.0643 26.582 44.6023 26.4884 45.1404 26.3715C45.6901 26.2428 46.2339 26.1025 46.7719 25.9504C47.3216 25.7867 48.3509 25.4416 48.3509 25.4416C48.7018 27.5294 47.2048 30.4611 45.2866 31.0908ZM37.1053 20.4592C37.386 20.4475 37.7427 20.4299 38.1754 20.4065C38.6199 20.3832 39.0877 20.3422 39.5789 20.2837C40.0702 20.2253 40.5614 20.1434 41.0526 20.0381C41.5439 19.9329 41.9883 19.7984 42.386 19.6346C42.7836 19.4709 43.1053 19.2662 43.3509 19.0206C43.5965 18.775 43.7193 18.4767 43.7193 18.1258C43.7193 17.5294 43.4795 17.0557 43 16.7048C42.5322 16.3422 41.8772 16.1609 41.0351 16.1609C40.6491 16.1609 40.2339 16.2194 39.7895 16.3364C39.345 16.4416 38.9298 16.6522 38.5439 16.968C38.1579 17.2837 37.8304 17.7223 37.5614 18.2837C37.2924 18.8451 37.1404 19.5703 37.1053 20.4592Z" fill="#FFFAF5"/>
</svg>
