<svg width="40" height="56" viewBox="0 0 64 65" fill="none" xmlns="http://www.w3.org/2000/svg">
<mask id="mask0_495_100192" style="mask-type:alpha" maskUnits="userSpaceOnUse" x="0" y="0" width="64" height="65">
<rect y="0.941406" width="64" height="64" fill="#C8381F"/>
</mask>
<g mask="url(#mask0_495_100192)">
<g filter="url(#filter0_d_495_100192)">
<path d="M32 0.941406C18.7314 0.941406 8 11.5834 8 24.7414C8 30.6574 9.71429 36.1994 12.8343 41.1974C16.0914 46.4334 18.7086 47.7054 22 52.9414C23.6114 55.4914 24.7657 56.1874 26 58.9414C26.8914 60.8114 29.2914 64.9414 32 64.9414C34.7086 64.9414 37.1429 60.8114 38 58.9414C39.2686 56.1874 40.3886 55.4914 42 52.9414C45.2914 47.7394 47.8743 46.4674 51.1314 41.1974C54.2857 36.1994 56 30.6574 56 24.7414C56 11.5834 45.2686 0.941406 32 0.941406Z" fill="#47A86E"/>
</g>
<mask id="mask1_495_100192" style="mask-type:alpha" maskUnits="userSpaceOnUse" x="16" y="6" width="32" height="33">
<rect x="16" y="6.94141" width="32" height="32" fill="#D9D9D9"/>
</mask>
<g mask="url(#mask1_495_100192)">
<path d="M18.667 34.9413V13.2747L25.3337 8.27466L32.0003 13.2747V16.2747H45.3337V34.9413H18.667ZM21.3337 32.2747H24.0003V29.608H21.3337V32.2747ZM21.3337 26.9413H24.0003V24.2747H21.3337V26.9413ZM21.3337 21.608H24.0003V18.9413H21.3337V21.608ZM21.3337 16.2747H24.0003V13.608H21.3337V16.2747ZM26.667 16.2747H29.3337V13.608H26.667V16.2747ZM26.667 32.2747H42.667V18.9413H26.667V32.2747ZM34.667 24.2747V21.608H40.0003V24.2747H34.667ZM34.667 29.608V26.9413H40.0003V29.608H34.667ZM29.3337 24.2747V21.608H32.0003V24.2747H29.3337ZM29.3337 29.608V26.9413H32.0003V29.608H29.3337Z" fill="white"/>
</g>
</g>
<defs>
<filter id="filter0_d_495_100192" x="-2" y="-9.05859" width="68" height="84" filterUnits="userSpaceOnUse" color-interpolation-filters="sRGB">
<feFlood flood-opacity="0" result="BackgroundImageFix"/>
<feColorMatrix in="SourceAlpha" type="matrix" values="0 0 0 0 0 0 0 0 0 0 0 0 0 0 0 0 0 0 127 0" result="hardAlpha"/>
<feOffset/>
<feGaussianBlur stdDeviation="5"/>
<feComposite in2="hardAlpha" operator="out"/>
<feColorMatrix type="matrix" values="0 0 0 0 0 0 0 0 0 0 0 0 0 0 0 0 0 0 0.25 0"/>
<feBlend mode="normal" in2="BackgroundImageFix" result="effect1_dropShadow_495_100192"/>
<feBlend mode="normal" in="SourceGraphic" in2="effect1_dropShadow_495_100192" result="shape"/>
</filter>
</defs>
</svg>
