<svg width="40" height="56" viewBox="0 0 64 65" fill="none" xmlns="http://www.w3.org/2000/svg">
<mask id="mask0_495_100189" style="mask-type:alpha" maskUnits="userSpaceOnUse" x="0" y="0" width="64" height="65">
<rect y="0.941406" width="64" height="64" fill="#C8381F"/>
</mask>
<g mask="url(#mask0_495_100189)">
<g filter="url(#filter0_d_495_100189)">
<path d="M32 0.941406C18.7314 0.941406 8 11.5834 8 24.7414C8 30.6574 9.71429 36.1994 12.8343 41.1974C16.0914 46.4334 18.7086 47.7054 22 52.9414C23.6114 55.4914 24.7657 56.1874 26 58.9414C26.8914 60.8114 29.2914 64.9414 32 64.9414C34.7086 64.9414 37.1429 60.8114 38 58.9414C39.2686 56.1874 40.3886 55.4914 42 52.9414C45.2914 47.7394 47.8743 46.4674 51.1314 41.1974C54.2857 36.1994 56 30.6574 56 24.7414C56 11.5834 45.2686 0.941406 32 0.941406Z" fill="#47A86E"/>
</g>
<mask id="mask1_495_100189" style="mask-type:alpha" maskUnits="userSpaceOnUse" x="15" y="7" width="33" height="33">
<rect x="15.7998" y="7.5415" width="32" height="32" fill="#D9D9D9"/>
</mask>
<g mask="url(#mask1_495_100189)">
<path d="M31.7995 35.5415L22.4661 30.4748V22.4748L17.1328 19.5415L31.7995 11.5415L46.4661 19.5415V30.2082H43.7995V21.0082L41.1328 22.4748V30.4748L31.7995 35.5415ZM31.7995 24.4748L40.9328 19.5415L31.7995 14.6082L22.6661 19.5415L31.7995 24.4748ZM31.7995 32.5082L38.4661 28.9082V23.8748L31.7995 27.5415L25.1328 23.8748V28.9082L31.7995 32.5082Z" fill="white"/>
</g>
</g>
<defs>
<filter id="filter0_d_495_100189" x="-2" y="-9.05859" width="68" height="84" filterUnits="userSpaceOnUse" color-interpolation-filters="sRGB">
<feFlood flood-opacity="0" result="BackgroundImageFix"/>
<feColorMatrix in="SourceAlpha" type="matrix" values="0 0 0 0 0 0 0 0 0 0 0 0 0 0 0 0 0 0 127 0" result="hardAlpha"/>
<feOffset/>
<feGaussianBlur stdDeviation="5"/>
<feComposite in2="hardAlpha" operator="out"/>
<feColorMatrix type="matrix" values="0 0 0 0 0 0 0 0 0 0 0 0 0 0 0 0 0 0 0.25 0"/>
<feBlend mode="normal" in2="BackgroundImageFix" result="effect1_dropShadow_495_100189"/>
<feBlend mode="normal" in="SourceGraphic" in2="effect1_dropShadow_495_100189" result="shape"/>
</filter>
</defs>
</svg>
