<svg width="40" height="56" viewBox="0 0 64 65" fill="none" xmlns="http://www.w3.org/2000/svg">
<mask id="mask0_495_100190" style="mask-type:alpha" maskUnits="userSpaceOnUse" x="0" y="0" width="64" height="65">
<rect y="0.941406" width="64" height="64" fill="#C8381F"/>
</mask>
<g mask="url(#mask0_495_100190)">
<g filter="url(#filter0_d_495_100190)">
<path d="M32 0.941406C18.7314 0.941406 8 11.5834 8 24.7414C8 30.6574 9.71429 36.1994 12.8343 41.1974C16.0914 46.4334 18.7086 47.7054 22 52.9414C23.6114 55.4914 24.7657 56.1874 26 58.9414C26.8914 60.8114 29.2914 64.9414 32 64.9414C34.7086 64.9414 37.1429 60.8114 38 58.9414C39.2686 56.1874 40.3886 55.4914 42 52.9414C45.2914 47.7394 47.8743 46.4674 51.1314 41.1974C54.2857 36.1994 56 30.6574 56 24.7414C56 11.5834 45.2686 0.941406 32 0.941406Z" fill="#47A86E"/>
</g>
<mask id="mask1_495_100190" style="mask-type:alpha" maskUnits="userSpaceOnUse" x="16" y="7" width="33" height="33">
<rect x="16.2002" y="7.5415" width="32" height="32" fill="#D9D9D9"/>
</mask>
<g mask="url(#mask1_495_100190)">
<path d="M24.1995 35.5415C22.7329 35.5415 21.4773 35.0193 20.4329 33.9748C19.3884 32.9304 18.8662 31.6748 18.8662 30.2082C18.8662 28.7415 19.3884 27.4859 20.4329 26.4415C21.4773 25.3971 22.7329 24.8748 24.1995 24.8748C25.6662 24.8748 26.9218 25.3971 27.9662 26.4415C29.0107 27.4859 29.5329 28.7415 29.5329 30.2082C29.5329 31.6748 29.0107 32.9304 27.9662 33.9748C26.9218 35.0193 25.6662 35.5415 24.1995 35.5415ZM40.1995 35.5415C38.7329 35.5415 37.4773 35.0193 36.4329 33.9748C35.3884 32.9304 34.8662 31.6748 34.8662 30.2082C34.8662 28.7415 35.3884 27.4859 36.4329 26.4415C37.4773 25.3971 38.7329 24.8748 40.1995 24.8748C41.6662 24.8748 42.9218 25.3971 43.9662 26.4415C45.0107 27.4859 45.5329 28.7415 45.5329 30.2082C45.5329 31.6748 45.0107 32.9304 43.9662 33.9748C42.9218 35.0193 41.6662 35.5415 40.1995 35.5415ZM24.1995 32.8748C24.9329 32.8748 25.5607 32.6137 26.0829 32.0915C26.6051 31.5693 26.8662 30.9415 26.8662 30.2082C26.8662 29.4748 26.6051 28.8471 26.0829 28.3248C25.5607 27.8026 24.9329 27.5415 24.1995 27.5415C23.4662 27.5415 22.8384 27.8026 22.3162 28.3248C21.794 28.8471 21.5329 29.4748 21.5329 30.2082C21.5329 30.9415 21.794 31.5693 22.3162 32.0915C22.8384 32.6137 23.4662 32.8748 24.1995 32.8748ZM40.1995 32.8748C40.9329 32.8748 41.5607 32.6137 42.0829 32.0915C42.6051 31.5693 42.8662 30.9415 42.8662 30.2082C42.8662 29.4748 42.6051 28.8471 42.0829 28.3248C41.5607 27.8026 40.9329 27.5415 40.1995 27.5415C39.4662 27.5415 38.8384 27.8026 38.3162 28.3248C37.794 28.8471 37.5329 29.4748 37.5329 30.2082C37.5329 30.9415 37.794 31.5693 38.3162 32.0915C38.8384 32.6137 39.4662 32.8748 40.1995 32.8748ZM32.1995 22.2082C30.7329 22.2082 29.4773 21.6859 28.4329 20.6415C27.3884 19.5971 26.8662 18.3415 26.8662 16.8748C26.8662 15.4082 27.3884 14.1526 28.4329 13.1082C29.4773 12.0637 30.7329 11.5415 32.1995 11.5415C33.6662 11.5415 34.9218 12.0637 35.9662 13.1082C37.0107 14.1526 37.5329 15.4082 37.5329 16.8748C37.5329 18.3415 37.0107 19.5971 35.9662 20.6415C34.9218 21.6859 33.6662 22.2082 32.1995 22.2082ZM32.1995 19.5415C32.9329 19.5415 33.5607 19.2804 34.0829 18.7582C34.6051 18.2359 34.8662 17.6082 34.8662 16.8748C34.8662 16.1415 34.6051 15.5137 34.0829 14.9915C33.5607 14.4693 32.9329 14.2082 32.1995 14.2082C31.4662 14.2082 30.8384 14.4693 30.3162 14.9915C29.794 15.5137 29.5329 16.1415 29.5329 16.8748C29.5329 17.6082 29.794 18.2359 30.3162 18.7582C30.8384 19.2804 31.4662 19.5415 32.1995 19.5415Z" fill="white"/>
</g>
</g>
<defs>
<filter id="filter0_d_495_100190" x="-2" y="-9.05859" width="68" height="84" filterUnits="userSpaceOnUse" color-interpolation-filters="sRGB">
<feFlood flood-opacity="0" result="BackgroundImageFix"/>
<feColorMatrix in="SourceAlpha" type="matrix" values="0 0 0 0 0 0 0 0 0 0 0 0 0 0 0 0 0 0 127 0" result="hardAlpha"/>
<feOffset/>
<feGaussianBlur stdDeviation="5"/>
<feComposite in2="hardAlpha" operator="out"/>
<feColorMatrix type="matrix" values="0 0 0 0 0 0 0 0 0 0 0 0 0 0 0 0 0 0 0.25 0"/>
<feBlend mode="normal" in2="BackgroundImageFix" result="effect1_dropShadow_495_100190"/>
<feBlend mode="normal" in="SourceGraphic" in2="effect1_dropShadow_495_100190" result="shape"/>
</filter>
</defs>
</svg>
