<svg width="40" height="56" viewBox="0 0 64 65" fill="none" xmlns="http://www.w3.org/2000/svg">
<mask id="mask0_495_100188" style="mask-type:alpha" maskUnits="userSpaceOnUse" x="0" y="0" width="64" height="65">
<rect y="0.941406" width="64" height="64" fill="#C8381F"/>
</mask>
<g mask="url(#mask0_495_100188)">
<g filter="url(#filter0_d_495_100188)">
<path d="M32 0.941406C18.7314 0.941406 8 11.5834 8 24.7414C8 30.6574 9.71429 36.1994 12.8343 41.1974C16.0914 46.4334 18.7086 47.7054 22 52.9414C23.6114 55.4914 24.7657 56.1874 26 58.9414C26.8914 60.8114 29.2914 64.9414 32 64.9414C34.7086 64.9414 37.1429 60.8114 38 58.9414C39.2686 56.1874 40.3886 55.4914 42 52.9414C45.2914 47.7394 47.8743 46.4674 51.1314 41.1974C54.2857 36.1994 56 30.6574 56 24.7414C56 11.5834 45.2686 0.941406 32 0.941406Z" fill="#47A86E"/>
</g>
<mask id="mask1_495_100188" style="mask-type:alpha" maskUnits="userSpaceOnUse" x="16" y="7" width="32" height="33">
<rect x="16" y="7.5415" width="32" height="32" fill="#D9D9D9"/>
</mask>
<g mask="url(#mask1_495_100188)">
<path d="M25.3333 36.8749V31.5416H16L21.1333 23.5416H18.6667L28 10.2083L32 15.9416L36 10.2083L45.3333 23.5416H42.8667L48 31.5416H38.6667V36.8749H33.3333V31.5416H30.6667V36.8749H25.3333ZM38.3 28.8749H43.1333L37.9667 20.8749H40.2L36 14.8749L33.6333 18.2416L37.3333 23.5416H34.8667L38.3 28.8749ZM20.8667 28.8749H35.1333L29.9667 20.8749H32.2L28 14.8749L23.8 20.8749H26.0333L20.8667 28.8749ZM20.8667 28.8749H26.0333H23.8H32.2H29.9667H35.1333H20.8667ZM38.3 28.8749H34.8667H37.3333H33.6333H40.2H37.9667H43.1333H38.3Z" fill="white"/>
</g>
</g>
<defs>
<filter id="filter0_d_495_100188" x="-2" y="-9.05859" width="68" height="84" filterUnits="userSpaceOnUse" color-interpolation-filters="sRGB">
<feFlood flood-opacity="0" result="BackgroundImageFix"/>
<feColorMatrix in="SourceAlpha" type="matrix" values="0 0 0 0 0 0 0 0 0 0 0 0 0 0 0 0 0 0 127 0" result="hardAlpha"/>
<feOffset/>
<feGaussianBlur stdDeviation="5"/>
<feComposite in2="hardAlpha" operator="out"/>
<feColorMatrix type="matrix" values="0 0 0 0 0 0 0 0 0 0 0 0 0 0 0 0 0 0 0.25 0"/>
<feBlend mode="normal" in2="BackgroundImageFix" result="effect1_dropShadow_495_100188"/>
<feBlend mode="normal" in="SourceGraphic" in2="effect1_dropShadow_495_100188" result="shape"/>
</filter>
</defs>
</svg>
