<svg width="28" height="28" viewBox="0 0 28 28" fill="none" xmlns="http://www.w3.org/2000/svg">
<path d="M5.79984 20.8001C6.93317 19.9334 8.19984 19.2501 9.59984 18.7501C10.9998 18.2501 12.4665 18.0001 13.9998 18.0001C15.5332 18.0001 16.9998 18.2501 18.3998 18.7501C19.7998 19.2501 21.0665 19.9334 22.1998 20.8001C22.9776 19.889 23.5832 18.8556 24.0165 17.7001C24.4498 16.5445 24.6665 15.3112 24.6665 14.0001C24.6665 11.0445 23.6276 8.52786 21.5498 6.45008C19.4721 4.3723 16.9554 3.33341 13.9998 3.33341C11.0443 3.33341 8.52761 4.3723 6.44984 6.45008C4.37206 8.52786 3.33317 11.0445 3.33317 14.0001C3.33317 15.3112 3.54984 16.5445 3.98317 17.7001C4.4165 18.8556 5.02206 19.889 5.79984 20.8001ZM13.9998 15.3334C12.6887 15.3334 11.5832 14.8834 10.6832 13.9834C9.78317 13.0834 9.33317 11.9779 9.33317 10.6667C9.33317 9.35564 9.78317 8.25008 10.6832 7.35008C11.5832 6.45008 12.6887 6.00008 13.9998 6.00008C15.3109 6.00008 16.4165 6.45008 17.3165 7.35008C18.2165 8.25008 18.6665 9.35564 18.6665 10.6667C18.6665 11.9779 18.2165 13.0834 17.3165 13.9834C16.4165 14.8834 15.3109 15.3334 13.9998 15.3334ZM13.9998 27.3334C12.1554 27.3334 10.4221 26.9834 8.79984 26.2834C7.17761 25.5834 5.7665 24.6334 4.5665 23.4334C3.3665 22.2334 2.4165 20.8223 1.7165 19.2001C1.0165 17.5779 0.666504 15.8445 0.666504 14.0001C0.666504 12.1556 1.0165 10.4223 1.7165 8.80008C2.4165 7.17786 3.3665 5.76675 4.5665 4.56675C5.7665 3.36675 7.17761 2.41675 8.79984 1.71675C10.4221 1.01675 12.1554 0.666748 13.9998 0.666748C15.8443 0.666748 17.5776 1.01675 19.1998 1.71675C20.8221 2.41675 22.2332 3.36675 23.4332 4.56675C24.6332 5.76675 25.5832 7.17786 26.2832 8.80008C26.9832 10.4223 27.3332 12.1556 27.3332 14.0001C27.3332 15.8445 26.9832 17.5779 26.2832 19.2001C25.5832 20.8223 24.6332 22.2334 23.4332 23.4334C22.2332 24.6334 20.8221 25.5834 19.1998 26.2834C17.5776 26.9834 15.8443 27.3334 13.9998 27.3334ZM13.9998 24.6667C15.1776 24.6667 16.2887 24.4945 17.3332 24.1501C18.3776 23.8056 19.3332 23.3112 20.1998 22.6667C19.3332 22.0223 18.3776 21.5279 17.3332 21.1834C16.2887 20.839 15.1776 20.6667 13.9998 20.6667C12.8221 20.6667 11.7109 20.839 10.6665 21.1834C9.62206 21.5279 8.6665 22.0223 7.79984 22.6667C8.6665 23.3112 9.62206 23.8056 10.6665 24.1501C11.7109 24.4945 12.8221 24.6667 13.9998 24.6667ZM13.9998 12.6667C14.5776 12.6667 15.0554 12.4779 15.4332 12.1001C15.8109 11.7223 15.9998 11.2445 15.9998 10.6667C15.9998 10.089 15.8109 9.61119 15.4332 9.23341C15.0554 8.85564 14.5776 8.66675 13.9998 8.66675C13.4221 8.66675 12.9443 8.85564 12.5665 9.23341C12.1887 9.61119 11.9998 10.089 11.9998 10.6667C11.9998 11.2445 12.1887 11.7223 12.5665 12.1001C12.9443 12.4779 13.4221 12.6667 13.9998 12.6667Z" fill="#007E51"/>
</svg>
