<svg width="28" height="28" viewBox="0 0 28 28" fill="none" xmlns="http://www.w3.org/2000/svg">
<path d="M5.80033 20.8001C6.93366 19.9334 8.20033 19.2501 9.60033 18.7501C11.0003 18.2501 12.467 18.0001 14.0003 18.0001C15.5337 18.0001 17.0003 18.2501 18.4003 18.7501C19.8003 19.2501 21.067 19.9334 22.2003 20.8001C22.9781 19.889 23.5837 18.8556 24.017 17.7001C24.4503 16.5445 24.667 15.3112 24.667 14.0001C24.667 11.0445 23.6281 8.52786 21.5503 6.45008C19.4725 4.3723 16.9559 3.33341 14.0003 3.33341C11.0448 3.33341 8.5281 4.3723 6.45033 6.45008C4.37255 8.52786 3.33366 11.0445 3.33366 14.0001C3.33366 15.3112 3.55033 16.5445 3.98366 17.7001C4.41699 18.8556 5.02255 19.889 5.80033 20.8001ZM14.0003 15.3334C12.6892 15.3334 11.5837 14.8834 10.6837 13.9834C9.78366 13.0834 9.33366 11.9779 9.33366 10.6667C9.33366 9.35564 9.78366 8.25008 10.6837 7.35008C11.5837 6.45008 12.6892 6.00008 14.0003 6.00008C15.3114 6.00008 16.417 6.45008 17.317 7.35008C18.217 8.25008 18.667 9.35564 18.667 10.6667C18.667 11.9779 18.217 13.0834 17.317 13.9834C16.417 14.8834 15.3114 15.3334 14.0003 15.3334ZM14.0003 27.3334C12.1559 27.3334 10.4225 26.9834 8.80032 26.2834C7.1781 25.5834 5.76699 24.6334 4.56699 23.4334C3.36699 22.2334 2.41699 20.8223 1.71699 19.2001C1.01699 17.5779 0.666992 15.8445 0.666992 14.0001C0.666992 12.1556 1.01699 10.4223 1.71699 8.80008C2.41699 7.17786 3.36699 5.76675 4.56699 4.56675C5.76699 3.36675 7.1781 2.41675 8.80032 1.71675C10.4225 1.01675 12.1559 0.666748 14.0003 0.666748C15.8448 0.666748 17.5781 1.01675 19.2003 1.71675C20.8225 2.41675 22.2337 3.36675 23.4337 4.56675C24.6337 5.76675 25.5837 7.17786 26.2837 8.80008C26.9837 10.4223 27.3337 12.1556 27.3337 14.0001C27.3337 15.8445 26.9837 17.5779 26.2837 19.2001C25.5837 20.8223 24.6337 22.2334 23.4337 23.4334C22.2337 24.6334 20.8225 25.5834 19.2003 26.2834C17.5781 26.9834 15.8448 27.3334 14.0003 27.3334Z" fill="#007E51"/>
</svg>
