<svg width="25" height="33" viewBox="0 0 25 33" fill="none" xmlns="http://www.w3.org/2000/svg">
<path fill-rule="evenodd" clip-rule="evenodd" d="M15.1482 8.67416C14.8433 8.63766 14.643 8.3375 14.7264 8.04196L15.2911 6.04C15.3598 5.79635 15.3973 5.53723 15.3973 5.26567C15.3973 3.68682 14.1088 2.40691 12.5193 2.40691C10.9298 2.40691 9.64123 3.68682 9.64123 5.26567C9.64123 5.53723 9.67872 5.79635 9.74745 6.04L10.3122 8.04196C10.3955 8.3375 10.1953 8.63766 9.89039 8.67416L7.80876 8.92336C6.38575 9.09371 5.28159 10.3011 5.28159 11.7613C5.28159 12.3579 5.46304 12.9055 5.77384 13.3611L6.97387 15.1206C7.14977 15.3785 7.04894 15.7328 6.76359 15.8594L4.80813 16.727C3.79815 17.1752 3.10177 18.1791 3.10177 19.3396C3.10177 20.9184 4.39031 22.1983 5.97981 22.1983C6.6713 22.1983 7.30033 21.959 7.79652 21.557L9.24955 20.3799L10.7026 21.557C11.1988 21.959 11.8278 22.1983 12.5193 22.1983C13.2821 22.1983 13.9714 21.9065 14.4881 21.4247L16.0615 19.9579L17.6348 21.4247C18.1516 21.9065 18.8408 22.1983 19.6037 22.1983C21.1932 22.1983 22.4817 20.9184 22.4817 19.3396C22.4817 18.088 21.6706 17.0187 20.5354 16.6333L18.3989 15.9079C18.0935 15.8042 17.9647 15.4427 18.1358 15.1692L19.3264 13.2668C19.5991 12.8311 19.757 12.318 19.757 11.7613C19.757 10.3011 18.6528 9.09371 17.2298 8.92336L15.1482 8.67416ZM19.0194 7.07765C18.5481 6.8648 18.039 6.72008 17.5049 6.65614C17.6296 6.21387 17.6964 5.74751 17.6964 5.26567C17.6964 5.21018 17.6955 5.15489 17.6937 5.09981C17.6056 2.33652 15.3226 0.123291 12.5193 0.123291C9.71593 0.123291 7.43299 2.33652 7.34484 5.09981C7.34309 5.15489 7.3422 5.21018 7.3422 5.26567C7.3422 5.74751 7.40892 6.21387 7.53368 6.65614C6.99955 6.72008 6.49046 6.86481 6.01916 7.07766C4.22799 7.8866 2.98256 9.67949 2.98256 11.7613C2.98256 12.1914 3.03571 12.6091 3.13584 13.0084C3.28423 13.6001 3.5358 14.1513 3.87047 14.642C3.31335 14.8892 2.80827 15.2313 2.37606 15.6476C1.40576 16.5822 0.802734 17.891 0.802734 19.3396C0.802734 22.1796 3.12059 24.4819 5.97981 24.4819C7.21986 24.4819 8.35808 24.0489 9.24955 23.3267C9.89808 23.8521 10.6772 24.2244 11.5311 24.3884V29.8119H7.69939V32.0955H17.6619V29.8119H13.8302V24.3157C14.6782 24.0959 15.4415 23.6678 16.0615 23.0898C16.9875 23.9532 18.2334 24.4819 19.6037 24.4819C22.4629 24.4819 24.7808 22.1796 24.7808 19.3396C24.7808 17.9043 24.1888 16.6064 23.2342 15.6736C22.6872 15.139 22.021 14.7243 21.2789 14.4724C21.6793 13.8327 21.9422 13.0993 22.0266 12.3129C22.046 12.1317 22.056 11.9476 22.056 11.7613C22.056 9.67948 20.8106 7.88659 19.0194 7.07765Z" fill="#007E51"/>
</svg>
