<svg width="28" height="28" viewBox="0 0 28 28" fill="none" xmlns="http://www.w3.org/2000/svg">
<path d="M15.3664 0.733154C18.5442 1.04427 21.2497 2.31649 23.483 4.54982C25.7164 6.78315 26.9886 9.48871 27.2997 12.6665H17.7664C17.5664 12.0887 17.2608 11.5832 16.8497 11.1498C16.4386 10.7165 15.9442 10.3998 15.3664 10.1998V0.733154ZM18.033 4.13315V8.66649C18.2775 8.86649 18.5108 9.0776 18.733 9.29982C18.9553 9.52204 19.1664 9.75538 19.3664 9.99982H23.8997C23.3664 8.66649 22.5886 7.48871 21.5664 6.46649C20.5442 5.44427 19.3664 4.66649 18.033 4.13315ZM12.6997 0.733154V10.1998C11.8997 10.4887 11.2553 10.9832 10.7664 11.6832C10.2775 12.3832 10.033 13.1554 10.033 13.9998C10.033 14.8443 10.2775 15.6054 10.7664 16.2832C11.2553 16.9609 11.8997 17.4443 12.6997 17.7332V27.2665C9.27748 26.9332 6.42193 25.4998 4.13304 22.9665C1.84415 20.4332 0.699707 17.4443 0.699707 13.9998C0.699707 10.5554 1.84415 7.56649 4.13304 5.03315C6.42193 2.49982 9.27748 1.06649 12.6997 0.733154ZM10.033 4.13315C8.01082 4.91093 6.39415 6.19982 5.18304 7.99982C3.97193 9.79982 3.36637 11.7998 3.36637 13.9998C3.36637 16.1998 3.97193 18.1998 5.18304 19.9998C6.39415 21.7998 8.01082 23.1109 10.033 23.9332V19.3332C9.1886 18.6887 8.53304 17.9054 8.06637 16.9832C7.59971 16.0609 7.36637 15.0665 7.36637 13.9998C7.36637 12.9332 7.59971 11.9387 8.06637 11.0165C8.53304 10.0943 9.1886 9.31093 10.033 8.66649V4.13315ZM17.7664 15.3332H27.2997C26.9886 18.5109 25.7164 21.2165 23.483 23.4498C21.2497 25.6832 18.5442 26.9554 15.3664 27.2665V17.7332C15.9442 17.5332 16.4386 17.2276 16.8497 16.8165C17.2608 16.4054 17.5664 15.9109 17.7664 15.3332ZM19.3664 17.9998C19.1886 18.2443 18.983 18.4776 18.7497 18.6998C18.5164 18.922 18.2775 19.1332 18.033 19.3332V23.8665C19.3664 23.3332 20.5442 22.5554 21.5664 21.5332C22.5886 20.5109 23.3664 19.3332 23.8997 17.9998H19.3664Z" fill="#fff"/>
</svg>
