<svg width="28" height="28" viewBox="0 0 28 28" fill="none" xmlns="http://www.w3.org/2000/svg">
<path d="M17.1091 12.6665C16.9091 12.0887 16.6036 11.5832 16.1925 11.1498C15.7814 10.7165 15.2869 10.3998 14.7091 10.1998V0.733154C17.8869 1.04427 20.5925 2.31649 22.8258 4.54982C25.0591 6.78315 26.3314 9.48871 26.6425 12.6665H17.1091ZM12.0425 27.2665C8.62026 26.9332 5.7647 25.4998 3.47581 22.9665C1.18693 20.4332 0.0424805 17.4443 0.0424805 13.9998C0.0424805 10.5554 1.18693 7.56649 3.47581 5.03315C5.7647 2.49982 8.62026 1.06649 12.0425 0.733154V10.1998C11.2425 10.4887 10.598 10.9832 10.1091 11.6832C9.62026 12.3832 9.37581 13.1554 9.37581 13.9998C9.37581 14.8443 9.62026 15.6054 10.1091 16.2832C10.598 16.9609 11.2425 17.4443 12.0425 17.7332V27.2665ZM14.7091 27.2665V17.7332C15.2869 17.5332 15.7814 17.2276 16.1925 16.8165C16.6036 16.4054 16.9091 15.9109 17.1091 15.3332H26.6425C26.3314 18.5109 25.0591 21.2165 22.8258 23.4498C20.5925 25.6832 17.8869 26.9554 14.7091 27.2665Z" fill="#fff"/>
</svg>
