<svg width="28" height="28" viewBox="0 0 28 28" fill="none" xmlns="http://www.w3.org/2000/svg">
<g filter="url(#filter0_d_477_80563)">
<path d="M14 19.5386C14 20.0909 13.5523 20.5386 13 20.5386C12.4477 20.5386 12 20.0909 12 19.5386H14ZM12.2929 5.83147C12.6834 5.44094 13.3166 5.44094 13.7071 5.83147L20.0711 12.1954C20.4616 12.586 20.4616 13.2191 20.0711 13.6096C19.6805 14.0002 19.0474 14.0002 18.6569 13.6096L13 7.95279L7.34315 13.6096C6.95262 14.0002 6.31946 14.0002 5.92893 13.6096C5.53841 13.2191 5.53841 12.586 5.92893 12.1954L12.2929 5.83147ZM12 19.5386L12 12.3544H14L14 19.5386H12ZM12 12.3544V6.53857H14V12.3544H12Z" fill="#FFFAF5"/>
</g>
<defs>
<filter id="filter0_d_477_80563" x="-4" y="-1.96143" width="28" height="28" filterUnits="userSpaceOnUse" color-interpolation-filters="sRGB">
<feFlood flood-opacity="0" result="BackgroundImageFix"/>
<feColorMatrix in="SourceAlpha" type="matrix" values="0 0 0 0 0 0 0 0 0 0 0 0 0 0 0 0 0 0 127 0" result="hardAlpha"/>
<feOffset dy="2"/>
<feGaussianBlur stdDeviation="2"/>
<feComposite in2="hardAlpha" operator="out"/>
<feColorMatrix type="matrix" values="0 0 0 0 0 0 0 0 0 0 0 0 0 0 0 0 0 0 0.25 0"/>
<feBlend mode="normal" in2="BackgroundImageFix" result="effect1_dropShadow_477_80563"/>
<feBlend mode="normal" in="SourceGraphic" in2="effect1_dropShadow_477_80563" result="shape"/>
</filter>
</defs>
</svg>
