<svg width="28" height="28" viewBox="0 0 28 28" fill="none" xmlns="http://www.w3.org/2000/svg">
<path fill-rule="evenodd" clip-rule="evenodd" d="M29.002 25.7069L24.8562 22.5619L23.2555 23.4848C21.2026 24.6685 18.7143 25.3793 16.002 25.3793C8.21014 25.3793 3.00195 19.8298 3.00195 14.3448C3.00195 8.85982 8.21014 3.31034 16.002 3.31034C23.7938 3.31034 29.002 8.85982 29.002 14.3448V25.7069ZM16.002 0C24.8385 0 32.002 6.4224 32.002 14.3448V32L24.6449 26.4188C22.1523 27.856 19.1857 28.6897 16.002 28.6897C7.1654 28.6897 0.00195312 22.2673 0.00195312 14.3448C0.00195312 6.4224 7.1654 0 16.002 0ZM9.00195 16C10.1065 16 11.002 15.1046 11.002 14C11.002 12.8954 10.1065 12 9.00195 12C7.89738 12 7.00195 12.8954 7.00195 14C7.00195 15.1046 7.89738 16 9.00195 16ZM18.002 14C18.002 15.1046 17.1065 16 16.002 16C14.8974 16 14.002 15.1046 14.002 14C14.002 12.8954 14.8974 12 16.002 12C17.1065 12 18.002 12.8954 18.002 14ZM23.002 16C24.1065 16 25.002 15.1046 25.002 14C25.002 12.8954 24.1065 12 23.002 12C21.8974 12 21.002 12.8954 21.002 14C21.002 15.1046 21.8974 16 23.002 16Z" fill="#007E51"/>
</svg>
