<svg width="32" height="32" viewBox="0 0 32 32" fill="none" xmlns="http://www.w3.org/2000/svg">
<mask id="mask0_854_23594" style="mask-type:alpha" maskUnits="userSpaceOnUse" x="0" y="0" width="32" height="32">
<rect width="32" height="32" fill="#D9D9D9"/>
</mask>
<g mask="url(#mask0_854_23594)">
<path d="M2.6665 28.0002V6.3335L9.33317 1.3335L15.9998 6.3335V9.3335H29.3332V28.0002H2.6665ZM5.33317 25.3335H7.99984V22.6668H5.33317V25.3335ZM5.33317 20.0002H7.99984V17.3335H5.33317V20.0002ZM5.33317 14.6668H7.99984V12.0002H5.33317V14.6668ZM5.33317 9.3335H7.99984V6.66683H5.33317V9.3335ZM10.6665 9.3335H13.3332V6.66683H10.6665V9.3335ZM10.6665 25.3335H26.6665V12.0002H10.6665V25.3335ZM18.6665 17.3335V14.6668H23.9998V17.3335H18.6665ZM18.6665 22.6668V20.0002H23.9998V22.6668H18.6665ZM13.3332 17.3335V14.6668H15.9998V17.3335H13.3332ZM13.3332 22.6668V20.0002H15.9998V22.6668H13.3332Z" fill="white"/>
</g>
</svg>
