<svg width="28" height="28" viewBox="0 0 28 28" fill="none" xmlns="http://www.w3.org/2000/svg">
<mask id="mask0_366_68237" style="mask-type:alpha" maskUnits="userSpaceOnUse" x="0" y="0" width="28" height="28">
<rect width="28" height="28" fill="#D9D9D9"/>
</mask>
<g mask="url(#mask0_366_68237)">
<path d="M6.66667 28C5.93333 28 5.30556 27.7389 4.78333 27.2167C4.26111 26.6945 4 26.0667 4 25.3334V6.66672C4 5.93338 4.26111 5.3056 4.78333 4.78338C5.30556 4.26116 5.93333 4.00005 6.66667 4.00005H15.3477C16.5356 4.00005 17.1305 5.43624 16.2905 6.27619C16.0405 6.52624 15.7013 6.66672 15.3477 6.66672H8.66667C7.5621 6.66672 6.66667 7.56215 6.66667 8.66672V23.3334C6.66667 24.438 7.5621 25.3334 8.66667 25.3334H23.3333C24.4379 25.3334 25.3333 24.438 25.3333 23.3334V16.619C25.3333 16.2654 25.4738 15.9262 25.7239 15.6762C26.5638 14.8362 28 15.4311 28 16.619V25.3334C28 26.0667 27.7389 26.6945 27.2167 27.2167C26.6944 27.7389 26.0667 28 25.3333 28H6.66667ZM13 20C12.4477 20 12 19.5523 12 19V15.1618C12 14.6314 12.2107 14.1227 12.5858 13.7476L24.2333 2.10005C24.5 1.83338 24.8 1.63338 25.1333 1.50005C25.4667 1.36672 25.8 1.30005 26.1333 1.30005C26.4889 1.30005 26.8278 1.36672 27.15 1.50005C27.4722 1.63338 27.7667 1.83338 28.0333 2.10005L29.9 4.00005C30.1444 4.26672 30.3333 4.56116 30.4667 4.88338C30.6 5.2056 30.6667 5.53338 30.6667 5.86672C30.6667 6.20005 30.6056 6.52783 30.4833 6.85005C30.3611 7.17227 30.1667 7.46672 29.9 7.73338L18.2528 19.4123C17.8776 19.7886 17.368 20 16.8366 20H13ZM14.6667 16.0135C14.6667 16.7424 15.2576 17.3334 15.9866 17.3334C16.3367 17.3334 16.6724 17.1943 16.9199 16.9468L24.2667 9.60005L23.3333 8.66672L22.3667 7.73338L15.0602 15.0399C14.8082 15.2918 14.6667 15.6336 14.6667 15.9899V16.0135Z" fill="#007E51"/>
</g>
</svg>
