<svg width="28" height="28" viewBox="0 0 28 28" fill="none" xmlns="http://www.w3.org/2000/svg">
<path d="M18.667 12.6667C19.7716 12.6667 20.667 11.7713 20.667 10.6667C20.667 9.56218 19.7716 8.66675 18.667 8.66675C17.5624 8.66675 16.667 9.56218 16.667 10.6667C16.667 11.7713 17.5624 12.6667 18.667 12.6667Z" fill="#007E51"/>
<path d="M9.33398 12.6667C10.4386 12.6667 11.334 11.7713 11.334 10.6667C11.334 9.56218 10.4386 8.66675 9.33398 8.66675C8.22941 8.66675 7.33398 9.56218 7.33398 10.6667C7.33398 11.7713 8.22941 12.6667 9.33398 12.6667Z" fill="#007E51"/>
<path d="M14.0007 22.0001C17.0407 22.0001 19.6273 19.7867 20.6673 16.6667H7.33398C8.37398 19.7867 10.9607 22.0001 14.0007 22.0001Z" fill="#007E51"/>
<path d="M13.987 0.666748C6.62699 0.666748 0.666992 6.64008 0.666992 14.0001C0.666992 21.3601 6.62699 27.3334 13.987 27.3334C21.3603 27.3334 27.3337 21.3601 27.3337 14.0001C27.3337 6.64008 21.3603 0.666748 13.987 0.666748ZM14.0003 24.6667C8.10699 24.6667 3.33366 19.8934 3.33366 14.0001C3.33366 8.10675 8.10699 3.33341 14.0003 3.33341C19.8937 3.33341 24.667 8.10675 24.667 14.0001C24.667 19.8934 19.8937 24.6667 14.0003 24.6667Z" fill="#007E51"/>
</svg>
