<svg width="32" height="32" viewBox="0 0 32 32" fill="none" xmlns="http://www.w3.org/2000/svg">
<mask id="mask0_854_37189" style="mask-type:alpha" maskUnits="userSpaceOnUse" x="0" y="0" width="32" height="32">
<rect width="32" height="32" fill="#D9D9D9"/>
</mask>
<g mask="url(#mask0_854_37189)">
<path d="M7.99984 28C6.53317 28 5.27762 27.4778 4.23317 26.4333C3.18873 25.3889 2.6665 24.1333 2.6665 22.6667C2.6665 21.2 3.18873 19.9444 4.23317 18.9C5.27762 17.8556 6.53317 17.3333 7.99984 17.3333C9.4665 17.3333 10.7221 17.8556 11.7665 18.9C12.8109 19.9444 13.3332 21.2 13.3332 22.6667C13.3332 24.1333 12.8109 25.3889 11.7665 26.4333C10.7221 27.4778 9.4665 28 7.99984 28ZM23.9998 28C22.5332 28 21.2776 27.4778 20.2332 26.4333C19.1887 25.3889 18.6665 24.1333 18.6665 22.6667C18.6665 21.2 19.1887 19.9444 20.2332 18.9C21.2776 17.8556 22.5332 17.3333 23.9998 17.3333C25.4665 17.3333 26.7221 17.8556 27.7665 18.9C28.8109 19.9444 29.3332 21.2 29.3332 22.6667C29.3332 24.1333 28.8109 25.3889 27.7665 26.4333C26.7221 27.4778 25.4665 28 23.9998 28ZM7.99984 25.3333C8.73317 25.3333 9.36095 25.0722 9.88317 24.55C10.4054 24.0278 10.6665 23.4 10.6665 22.6667C10.6665 21.9333 10.4054 21.3056 9.88317 20.7833C9.36095 20.2611 8.73317 20 7.99984 20C7.2665 20 6.63873 20.2611 6.1165 20.7833C5.59428 21.3056 5.33317 21.9333 5.33317 22.6667C5.33317 23.4 5.59428 24.0278 6.1165 24.55C6.63873 25.0722 7.2665 25.3333 7.99984 25.3333ZM23.9998 25.3333C24.7332 25.3333 25.3609 25.0722 25.8832 24.55C26.4054 24.0278 26.6665 23.4 26.6665 22.6667C26.6665 21.9333 26.4054 21.3056 25.8832 20.7833C25.3609 20.2611 24.7332 20 23.9998 20C23.2665 20 22.6387 20.2611 22.1165 20.7833C21.5943 21.3056 21.3332 21.9333 21.3332 22.6667C21.3332 23.4 21.5943 24.0278 22.1165 24.55C22.6387 25.0722 23.2665 25.3333 23.9998 25.3333ZM15.9998 14.6667C14.5332 14.6667 13.2776 14.1444 12.2332 13.1C11.1887 12.0556 10.6665 10.8 10.6665 9.33333C10.6665 7.86667 11.1887 6.61111 12.2332 5.56667C13.2776 4.52222 14.5332 4 15.9998 4C17.4665 4 18.7221 4.52222 19.7665 5.56667C20.8109 6.61111 21.3332 7.86667 21.3332 9.33333C21.3332 10.8 20.8109 12.0556 19.7665 13.1C18.7221 14.1444 17.4665 14.6667 15.9998 14.6667ZM15.9998 12C16.7332 12 17.3609 11.7389 17.8832 11.2167C18.4054 10.6944 18.6665 10.0667 18.6665 9.33333C18.6665 8.6 18.4054 7.97222 17.8832 7.45C17.3609 6.92778 16.7332 6.66667 15.9998 6.66667C15.2665 6.66667 14.6387 6.92778 14.1165 7.45C13.5943 7.97222 13.3332 8.6 13.3332 9.33333C13.3332 10.0667 13.5943 10.6944 14.1165 11.2167C14.6387 11.7389 15.2665 12 15.9998 12Z" fill="white"/>
</g>
</svg>
