<svg width="28" height="28" viewBox="0 0 28 28" fill="none" xmlns="http://www.w3.org/2000/svg">
<path d="M16 2.88125C20.275 2.88125 20.7812 2.9 22.4625 2.975C24.025 3.04375 24.8687 3.30625 25.4312 3.525C26.175 3.8125 26.7125 4.1625 27.2687 4.71875C27.8312 5.28125 28.175 5.8125 28.4625 6.55625C28.6812 7.11875 28.9438 7.96875 29.0125 9.525C29.0875 11.2125 29.1063 11.7188 29.1063 15.9875C29.1063 20.2625 29.0875 20.7688 29.0125 22.45C28.9438 24.0125 28.6812 24.8563 28.4625 25.4188C28.175 26.1625 27.825 26.7 27.2687 27.2562C26.7062 27.8187 26.175 28.1625 25.4312 28.45C24.8687 28.6688 24.0187 28.9312 22.4625 29C20.775 29.075 20.2688 29.0937 16 29.0937C11.725 29.0937 11.2188 29.075 9.5375 29C7.975 28.9312 7.13125 28.6688 6.56875 28.45C5.825 28.1625 5.2875 27.8125 4.73125 27.2562C4.16875 26.6937 3.825 26.1625 3.5375 25.4188C3.31875 24.8563 3.05625 24.0063 2.9875 22.45C2.9125 20.7625 2.89375 20.2563 2.89375 15.9875C2.89375 11.7125 2.9125 11.2062 2.9875 9.525C3.05625 7.9625 3.31875 7.11875 3.5375 6.55625C3.825 5.8125 4.175 5.275 4.73125 4.71875C5.29375 4.15625 5.825 3.8125 6.56875 3.525C7.13125 3.30625 7.98125 3.04375 9.5375 2.975C11.2188 2.9 11.725 2.88125 16 2.88125ZM16 0C11.6562 0 11.1125 0.01875 9.40625 0.09375C7.70625 0.16875 6.5375 0.44375 5.525 0.8375C4.46875 1.25 3.575 1.79375 2.6875 2.6875C1.79375 3.575 1.25 4.46875 0.8375 5.51875C0.44375 6.5375 0.16875 7.7 0.09375 9.4C0.01875 11.1125 0 11.6562 0 16C0 20.3437 0.01875 20.8875 0.09375 22.5937C0.16875 24.2937 0.44375 25.4625 0.8375 26.475C1.25 27.5312 1.79375 28.425 2.6875 29.3125C3.575 30.2 4.46875 30.75 5.51875 31.1562C6.5375 31.55 7.7 31.825 9.4 31.9C11.1062 31.975 11.65 31.9937 15.9937 31.9937C20.3375 31.9937 20.8813 31.975 22.5875 31.9C24.2875 31.825 25.4563 31.55 26.4688 31.1562C27.5188 30.75 28.4125 30.2 29.3 29.3125C30.1875 28.425 30.7375 27.5312 31.1437 26.4813C31.5375 25.4625 31.8125 24.3 31.8875 22.6C31.9625 20.8937 31.9813 20.35 31.9813 16.0063C31.9813 11.6625 31.9625 11.1187 31.8875 9.4125C31.8125 7.7125 31.5375 6.54375 31.1437 5.53125C30.75 4.46875 30.2063 3.575 29.3125 2.6875C28.425 1.8 27.5312 1.25 26.4813 0.84375C25.4625 0.45 24.3 0.175 22.6 0.1C20.8875 0.01875 20.3438 0 16 0Z" fill="#007E51"/>
</svg>
