<svg xmlns="http://www.w3.org/2000/svg" viewBox="0 0 256 256" width="30" height="30">
  <path
    d="M81.92 15.36c-36.71 0-66.56 29.85-66.56 66.56v92.16c0 36.71 29.85 66.56 66.56 66.56h92.16c36.71 0 66.56-29.85 66.56-66.56V81.92c0-36.71-29.85-66.56-66.56-66.56zm107.52 40.96c5.632 0 10.24 4.608 10.24 10.24 0 5.632-4.608 10.24-10.24 10.24-5.632 0-10.24-4.608-10.24-10.24 0-5.632 4.608-10.24 10.24-10.24zM128 71.68c31.078 0 56.32 25.242 56.32 56.32s-25.242 56.32-56.32 56.32S71.68 159.078 71.68 128 96.922 71.68 128 71.68zm0 10.24c-25.395 0-46.08 20.685-46.08 46.08s20.685 46.08 46.08 46.08 46.08-20.685 46.08-46.08S153.395 81.92 128 81.92z"
    fill="#007e51"
    stroke-miterlimit="10"
    font-family="none"
    font-weight="none"
    font-size="none"
    text-anchor="none"
  />
</svg>
