<svg width="28" height="28" viewBox="0 0 28 28" fill="none" xmlns="http://www.w3.org/2000/svg">
<path d="M16.0054 3.16602L17.7873 4.94793C18.7325 5.89311 19.2635 7.17505 19.2635 8.51174C19.2635 9.84843 18.7325 11.1304 17.7873 12.0756L16.0054 13.8575L14.214 12.0661C13.273 11.1201 12.7455 9.83946 12.7473 8.50508C12.749 7.1707 13.2799 5.89147 14.2235 4.94792L16.0054 3.16602Z" stroke="white" stroke-width="2" stroke-miterlimit="10"/>
<path d="M23.5601 11.0269V13.5469C23.5567 14.8698 23.0333 16.1383 22.1028 17.0787C21.1724 18.0191 19.9095 18.556 18.5867 18.5735H16.0667V16.0669C16.0666 14.7416 16.5884 13.4697 17.5193 12.5264C18.4501 11.5831 19.715 11.0444 21.0401 11.0269H23.5601Z" stroke="white" stroke-width="2" stroke-miterlimit="10"/>
<path d="M8.45328 11.0269H10.9599C12.2852 11.0267 13.5571 11.5486 14.5004 12.4794C15.4437 13.4102 15.9824 14.6751 15.9999 16.0002V18.5202H13.4799C12.1433 18.5202 10.8613 17.9892 9.91612 17.044C8.97094 16.0988 8.43994 14.8169 8.43994 13.4802V11.0269H8.45328Z" stroke="white" stroke-width="2" stroke-miterlimit="10"/>
<path d="M23.5469 18.5864V21.1064C23.5469 21.7683 23.4165 22.4237 23.1632 23.0351C22.9099 23.6466 22.5387 24.2022 22.0707 24.6702C21.6027 25.1383 21.0471 25.5095 20.4356 25.7628C19.8241 26.0161 19.1687 26.1464 18.5069 26.1464H16.0002V23.6264C16.0002 22.292 16.5294 21.0121 17.4717 20.0673C18.414 19.1225 19.6925 18.59 21.0269 18.5864H23.5469Z" stroke="white" stroke-width="2" stroke-miterlimit="10"/>
<path d="M8.45328 18.5864H10.9599C12.2943 18.5864 13.5743 19.1156 14.5191 20.0579C15.4639 21.0002 15.9964 22.2787 15.9999 23.6131V26.1331H13.4799C12.1433 26.1331 10.8613 25.6021 9.91612 24.6569C8.97094 23.7117 8.43994 22.4298 8.43994 21.0931V18.5864H8.45328Z" stroke="white" stroke-width="2" stroke-miterlimit="10"/>
<path d="M16 31.1735V13.5469" stroke="white" stroke-width="2" stroke-miterlimit="10"/>
</svg>
