<svg width="32" height="32" viewBox="0 0 32 32" fill="none" xmlns="http://www.w3.org/2000/svg">
<path d="M4.09585 8.1C-1.3653 13.56 -1.3653 22.44 4.09585 27.9C6.83642 30.64 10.4172 32 13.9979 32C17.5787 32 21.1594 30.64 23.9 27.9C30.8615 20.94 32.0017 0 32.0017 0C32.0017 0 11.0573 1.14 4.09585 8.1ZM21.5 25.5C19.5996 27.38 17.1806 28.5 14.5 28.5C12.7196 28.5 10 28 8.5 26.5C9 18.5 16.0017 12.5 22.5 8.5C12.5 11 5.93646 18.5 4.5 23.5C2.5 18.5 3.49937 13.5 6.5 10.5C10.7709 6.22995 20.9784 4.4 28.5 3.5C27.5998 11.02 26 20.5 21.5 25.5Z" fill="#007E51"/>
</svg>
