<svg width="16" height="16" viewBox="0 0 16 16" fill="none" xmlns="http://www.w3.org/2000/svg">
<mask id="mask0_128_2768" style="mask-type:alpha" maskUnits="userSpaceOnUse" x="0" y="0" width="16" height="16">
<rect width="16" height="16" fill="#D9D9D9"/>
</mask>
<g mask="url(#mask0_128_2768)">
<path d="M8 0C4.68286 0 2 2.6605 2 5.95C2 7.429 2.42857 8.8145 3.20857 10.064C4.02286 11.373 4.67714 11.691 5.5 13C5.90286 13.6375 6.19143 13.8115 6.5 14.5C6.72286 14.9675 7.32286 16 8 16C8.67714 16 9.28571 14.9675 9.5 14.5C9.81714 13.8115 10.0971 13.6375 10.5 13C11.3229 11.6995 11.9686 11.3815 12.7829 10.064C13.5714 8.8145 14 7.429 14 5.95C14 2.6605 11.3171 0 8 0ZM8 8.2875C6.81714 8.2875 5.85714 7.3355 5.85714 6.1625C5.85714 4.9895 6.81714 4.0375 8 4.0375C9.18286 4.0375 10.1429 4.9895 10.1429 6.1625C10.1429 7.3355 9.18286 8.2875 8 8.2875Z" fill="#818181"/>
</g>
</svg>
