<svg width="28" height="28" viewBox="0 0 28 28" fill="none" xmlns="http://www.w3.org/2000/svg">
<g clip-path="url(#clip0_128_5320)">
<path d="M28 7.99992H23.7733L21.3333 5.33325H13.3333V7.99992H20.16L22.6 10.6666H28V26.6666H6.66667V14.6666H4V26.6666C4 28.1333 5.2 29.3333 6.66667 29.3333H28C29.4667 29.3333 30.6667 28.1333 30.6667 26.6666V10.6666C30.6667 9.19992 29.4667 7.99992 28 7.99992ZM10.6667 18.6666C10.6667 22.3466 13.6533 25.3333 17.3333 25.3333C21.0133 25.3333 24 22.3466 24 18.6666C24 14.9866 21.0133 11.9999 17.3333 11.9999C13.6533 11.9999 10.6667 14.9866 10.6667 18.6666ZM17.3333 14.6666C19.5333 14.6666 21.3333 16.4666 21.3333 18.6666C21.3333 20.8666 19.5333 22.6666 17.3333 22.6666C15.1333 22.6666 13.3333 20.8666 13.3333 18.6666C13.3333 16.4666 15.1333 14.6666 17.3333 14.6666ZM6.66667 7.99992H10.6667V5.33325H6.66667V1.33325H4V5.33325H0V7.99992H4V11.9999H6.66667V7.99992Z" fill="#007E51"/>
</g>
<defs>
<clipPath id="clip0_128_5320">
<rect width="28" height="28" fill="white"/>
</clipPath>
</defs>
</svg>
