<svg width="20" height="28" viewBox="0 0 20 28" fill="none" xmlns="http://www.w3.org/2000/svg">
<path d="M9.99984 23.3334C6.8665 21.0223 4.52761 18.7779 2.98317 16.6001C1.43873 14.4223 0.666504 12.289 0.666504 10.2001C0.666504 8.6223 0.949837 7.23897 1.5165 6.05008C2.08317 4.86119 2.81095 3.86675 3.69984 3.06675C4.58873 2.26675 5.58873 1.66675 6.69984 1.26675C7.81095 0.866748 8.91095 0.666748 9.99984 0.666748C11.0887 0.666748 12.1887 0.866748 13.2998 1.26675C14.4109 1.66675 15.4109 2.26675 16.2998 3.06675C17.1887 3.86675 17.9165 4.86119 18.4832 6.05008C19.0498 7.23897 19.3332 8.6223 19.3332 10.2001C19.3332 12.289 18.5609 14.4223 17.0165 16.6001C15.4721 18.7779 13.1332 21.0223 9.99984 23.3334ZM9.99984 12.6667C10.7332 12.6667 11.3609 12.4056 11.8832 11.8834C12.4054 11.3612 12.6665 10.7334 12.6665 10.0001C12.6665 9.26675 12.4054 8.63897 11.8832 8.11675C11.3609 7.59453 10.7332 7.33341 9.99984 7.33341C9.2665 7.33341 8.63873 7.59453 8.1165 8.11675C7.59428 8.63897 7.33317 9.26675 7.33317 10.0001C7.33317 10.7334 7.59428 11.3612 8.1165 11.8834C8.63873 12.4056 9.2665 12.6667 9.99984 12.6667ZM0.666504 27.3334V24.6667H19.3332V27.3334H0.666504Z" fill="#007E51"/>
</svg>
