<svg width="32" height="32" viewBox="0 0 32 32" fill="none" xmlns="http://www.w3.org/2000/svg">
<mask id="mask0_650_45348" style="mask-type:alpha" maskUnits="userSpaceOnUse" x="0" y="0" width="32" height="32">
<rect width="32" height="32" fill="#D9D9D9"/>
</mask>
<g mask="url(#mask0_650_45348)">
<path d="M15.9998 21.9667C18.1998 20.189 19.8609 18.4779 20.9832 16.8334C22.1054 15.189 22.6665 13.6445 22.6665 12.2001C22.6665 10.9556 22.4387 9.89453 21.9832 9.01675C21.5276 8.13897 20.9665 7.42786 20.2998 6.88341C19.6332 6.33897 18.9109 5.94453 18.1332 5.70008C17.3554 5.45564 16.6443 5.33341 15.9998 5.33341C15.3554 5.33341 14.6443 5.45564 13.8665 5.70008C13.0887 5.94453 12.3665 6.33897 11.6998 6.88341C11.0332 7.42786 10.4721 8.13897 10.0165 9.01675C9.56095 9.89453 9.33317 10.9556 9.33317 12.2001C9.33317 13.6445 9.89428 15.189 11.0165 16.8334C12.1387 18.4779 13.7998 20.189 15.9998 21.9667ZM15.9998 25.3334C12.8665 23.0223 10.5276 20.7779 8.98317 18.6001C7.43873 16.4223 6.6665 14.289 6.6665 12.2001C6.6665 10.6223 6.94984 9.23897 7.5165 8.05008C8.08317 6.86119 8.81095 5.86675 9.69984 5.06675C10.5887 4.26675 11.5887 3.66675 12.6998 3.26675C13.8109 2.86675 14.9109 2.66675 15.9998 2.66675C17.0887 2.66675 18.1887 2.86675 19.2998 3.26675C20.4109 3.66675 21.4109 4.26675 22.2998 5.06675C23.1887 5.86675 23.9165 6.86119 24.4832 8.05008C25.0498 9.23897 25.3332 10.6223 25.3332 12.2001C25.3332 14.289 24.5609 16.4223 23.0165 18.6001C21.4721 20.7779 19.1332 23.0223 15.9998 25.3334ZM15.9998 14.6667C16.7332 14.6667 17.3609 14.4056 17.8832 13.8834C18.4054 13.3612 18.6665 12.7334 18.6665 12.0001C18.6665 11.2667 18.4054 10.639 17.8832 10.1167C17.3609 9.59453 16.7332 9.33341 15.9998 9.33341C15.2665 9.33341 14.6387 9.59453 14.1165 10.1167C13.5943 10.639 13.3332 11.2667 13.3332 12.0001C13.3332 12.7334 13.5943 13.3612 14.1165 13.8834C14.6387 14.4056 15.2665 14.6667 15.9998 14.6667ZM6.6665 29.3334V26.6667H25.3332V29.3334H6.6665Z" fill="#007E51"/>
</g>
</svg>
