<svg width="28" height="28" viewBox="0 0 28 28" fill="none" xmlns="http://www.w3.org/2000/svg">
<path fill-rule="evenodd" clip-rule="evenodd" d="M1.47255 0.950179C1.86421 0.984742 2.44015 1.04323 3.12643 1.13615C5.70467 1.48523 9.84022 2.32025 11.6121 4.19811C11.6543 4.24279 11.6956 4.28803 11.736 4.3338C11.7671 4.36519 11.7979 4.39704 11.8284 4.42937C12.5948 5.24162 13.1771 6.52253 13.6179 7.93583C14.0586 6.52253 14.6409 5.24162 15.4073 4.42937C15.4379 4.39704 15.4686 4.36519 15.4997 4.3338C15.5401 4.28803 15.5814 4.24279 15.6236 4.19811C17.3955 2.32025 21.531 1.48523 24.1093 1.13615C24.7956 1.04323 25.3715 0.984742 25.7632 0.950179C26.0597 0.924012 26.3041 1.16651 26.2811 1.46329C26.2488 1.87868 26.193 2.50224 26.103 3.2491C25.7736 5.98151 24.9857 10.3644 23.2138 12.2422C23.1833 12.2745 23.1525 12.3064 23.1215 12.3378C23.081 12.3836 23.0397 12.4288 22.9976 12.4735C21.3608 14.2082 17.707 15.053 15.127 15.4469V21.4131H19.2075V23.9904L8.59811 23.9904V21.4131H12.6787V15.5293C10.0975 15.1766 5.99972 14.3404 4.23812 12.4735C4.19597 12.4288 4.15466 12.3836 4.11421 12.3378C4.08317 12.3064 4.05239 12.2745 4.02189 12.2422C2.24998 10.3644 1.46208 5.98151 1.13269 3.2491C1.04266 2.50224 0.986882 1.87868 0.954631 1.46329C0.93159 1.16651 1.17603 0.924012 1.47255 0.950179ZM7.05922 4.32163C5.83118 3.94246 4.50703 3.68419 3.37571 3.51328C3.53697 4.71226 3.78067 6.1156 4.13845 7.41707C4.57647 9.01041 5.09281 10.0956 5.57009 10.6014C5.58847 10.6209 5.60696 10.64 5.62556 10.6588C5.65528 10.6889 5.6842 10.7198 5.71228 10.7516C5.7364 10.7789 5.76109 10.8059 5.78633 10.8327C6.26362 11.3385 7.28758 11.8857 8.79103 12.3499C10.0191 12.7291 11.3432 12.9874 12.4745 13.1583C12.3133 11.9593 12.0696 10.556 11.7118 9.25452C11.2738 7.66117 10.7574 6.57598 10.2801 6.07015C10.2618 6.05068 10.2433 6.03154 10.2247 6.01274C10.195 5.98269 10.166 5.95176 10.138 5.91998C10.1138 5.89269 10.0892 5.86565 10.0639 5.83889C9.58662 5.33306 8.56266 4.78584 7.05922 4.32163ZM20.1765 4.32163C21.4045 3.94246 22.7287 3.68419 23.86 3.51328C23.6987 4.71226 23.455 6.1156 23.0973 7.41707C22.6592 9.01041 22.1429 10.0956 21.6656 10.6014C21.6472 10.6209 21.6287 10.64 21.6101 10.6588C21.5804 10.6889 21.5515 10.7198 21.5234 10.7516C21.4993 10.7789 21.4746 10.8059 21.4494 10.8327C20.9721 11.3385 19.9481 11.8857 18.4447 12.3499C17.2166 12.7291 15.8925 12.9874 14.7612 13.1583C14.9224 11.9593 15.1661 10.556 15.5239 9.25452C15.9619 7.66117 16.4783 6.57598 16.9556 6.07015C16.9739 6.05068 16.9924 6.03154 17.011 6.01274C17.0407 5.98269 17.0697 5.95176 17.0977 5.91998C17.1219 5.89269 17.1465 5.86565 17.1718 5.83889C17.6491 5.33306 18.673 4.78584 20.1765 4.32163Z" fill="#007E51"/>
</svg>
