<svg width="32" height="32" viewBox="0 0 32 32" fill="none" xmlns="http://www.w3.org/2000/svg">
<path d="M23.5332 0L21.2707 2.29613L24.9395 6.01943H24.002C14.3005 6.01943 6.40195 14.0354 6.40195 23.8811V25.5049H9.60195V23.8811C9.60195 15.7904 16.0298 9.267 24.002 9.267H24.9395L21.2707 12.9903L23.5332 15.2864L31.0645 7.64321L23.5332 0ZM0.00195312 9.267V10.8908V27.1286C0.00195312 29.7997 2.17 32 4.80195 32H27.202C29.8339 32 32.002 29.7997 32.002 27.1286V25.5049V23.8811H28.802V25.5049V27.1286C28.802 28.0461 28.106 28.7524 27.202 28.7524H4.80195C3.8979 28.7524 3.20195 28.0461 3.20195 27.1286V10.8908V9.267H0.00195312Z" fill="#007E51"/>
</svg>
