<svg width="24" height="24" fill="none" xmlns="http://www.w3.org/2000/svg">
  <path fill-rule="evenodd" clip-rule="evenodd"
    d="M3.518 4.002c.265.026.613.063 1.014.118 1.832.248 4.77.842 6.029 2.178.03.032.06.064.088.097l.065.068c.545.578.958 1.489 1.272 2.494.313-1.005.726-1.916 1.27-2.494l.066-.068.089-.097c1.258-1.336 4.197-1.93 6.028-2.178.401-.055.749-.092 1.015-.118a.47.47 0 01.515.51c-.023.287-.06.669-.113 1.111-.234 1.944-.794 5.063-2.053 6.399a3.839 3.839 0 01-.065.068 3.992 3.992 0 01-.088.096c-1.163 1.235-3.76 1.836-5.592 2.116v4.244h2.899v1.834H8.419v-1.834h2.9v-4.185c-1.835-.251-4.746-.846-5.997-2.175a3.994 3.994 0 01-.088-.096 3.948 3.948 0 01-.066-.068c-1.259-1.336-1.819-4.455-2.053-6.399-.053-.442-.09-.824-.113-1.11a.47.47 0 01.516-.51zm3.808 2.384a18.423 18.423 0 00-2.617-.575A21.7 21.7 0 005.25 8.59c.311 1.133.678 1.905 1.017 2.265l.04.041.061.066.053.058c.339.36 1.066.75 2.134 1.08.873.27 1.814.453 2.618.575a21.686 21.686 0 00-.542-2.778C10.32 8.762 9.954 7.99 9.614 7.63a1.61 1.61 0 01-.101-.107 2.398 2.398 0 00-.052-.057c-.34-.36-1.067-.75-2.135-1.08zm9.32 0c.872-.27 1.813-.453 2.616-.575a21.703 21.703 0 01-.542 2.778c-.31 1.133-.678 1.905-1.017 2.265a1.607 1.607 0 00-.101.107l-.052.058c-.34.36-1.067.75-2.135 1.08-.873.27-1.813.453-2.617.575a21.72 21.72 0 01.542-2.778c.31-1.134.678-1.906 1.017-2.266l.04-.04.06-.066a2.65 2.65 0 01.053-.058c.34-.36 1.067-.75 2.135-1.08z"
    fill="#007E51" />
</svg>
