<svg width="24" height="24" fill="none" xmlns="http://www.w3.org/2000/svg">
  <mask
    id="prefix__a"
    style="mask-type: alpha"
    maskUnits="userSpaceOnUse"
    x="1"
    y="1"
    width="21"
    height="21"
  >
    <path fill="#D9D9D9" d="M1 1h21v21H1z" />
  </mask>
  <g mask="url(#prefix__a)">
    <path
      d="M10.406 11.062l6.19-6.19a.84.84 0 01.613-.263.84.84 0 01.612.262.84.84 0 01.263.613.84.84 0 01-.263.612l-6.169 6.19-1.246-1.224zm2.165 2.165l5.557-5.578a.852.852 0 01.623-.262c.24 0 .448.087.623.262a.852.852 0 01.263.624c0 .24-.088.448-.263.623l-5.556 5.556-1.247-1.225zm-6.956 4.157c-1.327-1.327-1.99-2.924-1.99-4.79 0-1.867.663-3.464 1.99-4.791L8.24 5.178l1.29 1.29c.103.102.19.208.263.317.073.11.146.223.219.34l3.237-3.26a.852.852 0 01.624-.262c.24 0 .448.087.623.262a.852.852 0 01.263.623c0 .241-.088.449-.263.624l-3.784 3.784-1.86 1.838.416.415c.671.671.992 1.473.963 2.407-.03.933-.387 1.742-1.072 2.428l-1.247-1.225c.335-.336.521-.733.558-1.192a1.454 1.454 0 00-.449-1.193l-1.028-1.006a.852.852 0 01-.262-.623c0-.24.087-.449.262-.624L8.24 8.896a.852.852 0 00.263-.623.852.852 0 00-.263-.624l-1.4 1.4c-.992.992-1.487 2.177-1.487 3.555 0 1.378.495 2.563 1.487 3.555.992.992 2.18 1.487 3.566 1.487 1.385 0 2.574-.495 3.565-1.487l5.228-5.25a.852.852 0 01.624-.263c.24 0 .448.088.623.263a.852.852 0 01.263.623c0 .24-.088.449-.263.624l-5.25 5.228c-1.327 1.327-2.924 1.99-4.79 1.99-1.867 0-3.464-.663-4.791-1.99zm10.26 3.762v-1.772c.962 0 1.786-.342 2.471-1.028.686-.685 1.028-1.51 1.028-2.472h1.772c0 1.459-.514 2.702-1.542 3.73s-2.271 1.542-3.73 1.542zM1.852 7.124c0-1.458.514-2.701 1.542-3.73 1.028-1.027 2.271-1.541 3.73-1.541v1.771c-.963 0-1.787.343-2.472 1.029-.686.685-1.029 1.509-1.029 2.471H1.853z"
      fill="#007E51"
    />
  </g>
</svg>
