<svg width="24" height="24" fill="none" xmlns="http://www.w3.org/2000/svg">
  <path fill-rule="evenodd" clip-rule="evenodd"
    d="M15.265 3.761c.2-.792-.407-1.653-.407-1.653s-.934.425-1.136 1.217c-.2.792.408 1.653.408 1.653s.934-.424 1.135-1.217zm4.323 3.13c.55-.58.43-1.646.43-1.646s-1.01-.126-1.56.454c-.548.58-.43 1.647-.43 1.647s1.01.125 1.56-.455zm-.317 3.99c1.1-.672 1.34-2.41 1.34-2.41s-1.546-.65-2.647.02c-1.1.671-1.34 2.41-1.34 2.41s1.546.65 2.647-.02zM2.182 13.778s1.03 1.38 2.302 1.38c1.27 0 2.301-1.38 2.301-1.38s-1.03-1.38-2.301-1.38c-1.272 0-2.302 1.38-2.302 1.38zm19.636 0s-1.03 1.38-2.301 1.38c-1.271 0-2.302-1.38-2.302-1.38s1.03-1.38 2.302-1.38c1.27 0 2.301 1.38 2.301 1.38zM3.39 8.47s.24 1.738 1.34 2.41c1.1.67 2.646.02 2.646.02s-.239-1.739-1.34-2.41c-1.1-.67-2.646-.02-2.646-.02zm18.46 3.314c.75-.212 1.151-1.199 1.151-1.199s-.815-.642-1.565-.43c-.75.213-1.152 1.2-1.152 1.2s.815.642 1.565.43zM1 10.586s.402.987 1.152 1.2c.75.212 1.565-.43 1.565-.43s-.401-.987-1.152-1.2c-.75-.212-1.565.43-1.565.43zm2.983-5.34s-.12 1.065.43 1.645c.55.58 1.559.455 1.559.455s.12-1.067-.43-1.647c-.55-.58-1.56-.454-1.56-.454zm5.159-3.138s-.608.86-.407 1.653S9.87 4.978 9.87 4.978s.608-.86.407-1.653c-.2-.792-1.135-1.217-1.135-1.217zm7.754 5.369c.636-1.163.02-2.795.02-2.795s-1.647.253-2.283 1.415c-.635 1.163-.02 2.795-.02 2.795s1.647-.253 2.283-1.415zm-4.968-4.142s1.306 1.088 1.306 2.43c0 1.343-1.306 2.431-1.306 2.431s-1.306-1.088-1.306-2.43c0-1.343 1.306-2.43 1.306-2.43zM7.104 7.477c-.636-1.163-.02-2.795-.02-2.795s1.647.253 2.282 1.415c.636 1.163.02 2.795.02 2.795s-1.647-.253-2.282-1.415zm6.13 3.61c0 .725-.557 1.313-1.244 1.313-.687 0-1.244-.588-1.244-1.314 0-.725.557-1.314 1.244-1.314.687 0 1.244.589 1.244 1.314zm-1.277 2.318l2.794-2.006a.546.546 0 11.626.894l-2.629 1.794c-.33.296-1.002 1.105-1.055 1.978-.052.873.154 1.455.264 1.637.22.387.527 1.46 0 2.66.396-.272 1.055-1.186.527-2.66-.527-1.473.176-2.57.594-2.933.945 1.387 2.043 4.72-1.12 6.958-1.363-.774-3.442-3.384-.858-7.64l-2.51-1.79a.549.549 0 11.642-.89l2.725 1.998z"
    fill="currentColor" />
</svg>
