<svg width="24" height="24" fill="none" xmlns="http://www.w3.org/2000/svg">
  <path
    fill-rule="evenodd"
    clip-rule="evenodd"
    d="M13.748 3.745L12.004 2l-1.745 1.745A4.234 4.234 0 009.17 7.859a4.234 4.234 0 00-.703-.059H6v2.42c0 1.07.405 2.098 1.13 2.88H6v2.457a4.234 4.234 0 004.234 4.234h1.065v2.831h1.402V19.8h1.056a4.233 4.233 0 004.234-4.234V13.1h-1.085A4.234 4.234 0 0018 10.27V7.8h-2.477a4.233 4.233 0 00-.688.066 4.233 4.233 0 00-1.087-4.121zM11.3 11.988a2.832 2.832 0 00-2.832-2.786H7.402v1.019a2.832 2.832 0 002.832 2.831h1.065v-1.064zm0 5.324a2.832 2.832 0 00-2.832-2.811H7.402v1.056a2.832 2.832 0 002.832 2.832h1.065v-1.077zm1.402.011v1.075h1.056a2.832 2.832 0 002.832-2.832v-1.065h-1.065a2.832 2.832 0 00-2.823 2.822zM11.25 4.736l.753-.753.753.753a2.832 2.832 0 010 4.005l-.753.753-.76-.76a2.832 2.832 0 01.006-3.998zm4.287 4.466h1.06v1.065a2.832 2.832 0 01-2.79 2.823h-1.06v-1.056a2.832 2.832 0 012.79-2.832z"
    fill="currentColor"
  />
</svg>
