<svg width="24" height="24" fill="none" xmlns="http://www.w3.org/2000/svg">
  <path
    fill-rule="evenodd"
    clip-rule="evenodd"
    d="M14.34 6.558a.5.5 0 01-.422-.632l.354-1.256a2.034 2.034 0 00-1.965-2.576 2.034 2.034 0 00-1.965 2.576l.354 1.256a.5.5 0 01-.422.632l-1.307.156a2.032 2.032 0 00-1.792 2.012 2 2 0 00.35 1.134l.752 1.104a.5.5 0 01-.21.739l-1.227.544a2.027 2.027 0 00-1.21 1.852c0 1.12.914 2.027 2.04 2.027.49 0 .937-.17 1.288-.455l1.03-.834 1.03.834c.353.285.799.455 1.289.455.54 0 1.03-.207 1.396-.549l1.115-1.04 1.116 1.04c.366.342.855.549 1.396.549 1.127 0 2.04-.908 2.04-2.027a2.03 2.03 0 00-1.38-1.919l-1.34-.455a.5.5 0 01-.264-.739l.747-1.192a2 2 0 00.305-1.068 2.032 2.032 0 00-1.791-2.012l-1.307-.156zm2.575-1.152a3.665 3.665 0 00-1.073-.3 3.624 3.624 0 00.133-1.103c-.062-1.959-1.68-3.528-3.668-3.528-1.988 0-3.606 1.57-3.669 3.528a3.675 3.675 0 00.134 1.104c-.379.045-.74.148-1.074.299A3.645 3.645 0 005.654 9.61c.105.42.284.81.521 1.159a3.678 3.678 0 00-1.06.713A3.623 3.623 0 004 14.099c0 2.014 1.643 3.646 3.67 3.646a3.67 3.67 0 002.319-.82c.46.373 1.012.637 1.617.754v3.845H8.89v1.619h7.063v-1.62h-2.717v-3.896a3.673 3.673 0 001.582-.869c.657.612 1.54.987 2.511.987 2.028 0 3.671-1.632 3.671-3.646 0-1.018-.42-1.938-1.096-2.599a3.675 3.675 0 00-1.387-.852 3.607 3.607 0 00.551-1.922 3.645 3.645 0 00-2.153-3.32z"
    fill="#007E51"
  />
</svg>
