<svg width="24" height="24" fill="none" xmlns="http://www.w3.org/2000/svg">
  <path fill-rule="evenodd" clip-rule="evenodd"
    d="M13.918 5.926a.5.5 0 00.422.632l1.306.156a2.032 2.032 0 011.792 2.012 2 2 0 01-.305 1.068l-.747 1.192a.5.5 0 00.264.74l1.34.454a2.03 2.03 0 011.38 1.92c0 1.119-.914 2.026-2.04 2.026-.541 0-1.03-.207-1.396-.549l-1.116-1.04-1.115 1.04a2.035 2.035 0 01-1.396.549c-.49 0-.936-.17-1.288-.455l-1.03-.834-1.03.834a2.034 2.034 0 01-1.289.455 2.034 2.034 0 01-2.04-2.027c0-.823.494-1.534 1.21-1.852l1.227-.544a.5.5 0 00.21-.74l-.753-1.102a2 2 0 01-.349-1.135c0-1.035.783-1.891 1.792-2.012l1.307-.156a.5.5 0 00.422-.632l-.354-1.256a2.034 2.034 0 011.965-2.576 2.034 2.034 0 011.965 2.576l-.354 1.256zm1.924-.82c.378.046.74.149 1.073.3a3.645 3.645 0 012.132 3.711 3.607 3.607 0 01-.53 1.531c.526.179.999.473 1.387.852A3.623 3.623 0 0121 14.1c0 2.013-1.643 3.645-3.67 3.645a3.671 3.671 0 01-2.512-.987c-.44.41-.98.713-1.582.87v3.896h2.717v1.619H8.89v-1.62h2.716V17.68a3.666 3.666 0 01-1.617-.753 3.67 3.67 0 01-2.319.819c-2.027 0-3.67-1.632-3.67-3.646 0-1.027.428-1.955 1.115-2.617a3.677 3.677 0 011.06-.713 3.616 3.616 0 01-.63-2.043c0-1.476.883-2.747 2.153-3.32.335-.151.695-.254 1.074-.3a3.626 3.626 0 01-.134-1.103C8.701 2.044 10.32.475 12.307.475c1.987 0 3.606 1.57 3.668 3.528.002.04.002.079.002.118 0 .342-.047.672-.136.986zM11.476 8h1.25v1.875h1.875v1.25h-1.875V13h-1.25v-1.875H9.601v-1.25h1.875V8z"
    fill="#007E51" />
</svg>
