<svg width="32" height="32" viewBox="0 0 32 32" fill="none" xmlns="http://www.w3.org/2000/svg">
<mask id="mask0_854_4420" style="mask-type:alpha" maskUnits="userSpaceOnUse" x="0" y="0" width="32" height="32">
<rect width="32" height="32" fill="#D9D9D9"/>
</mask>
<g mask="url(#mask0_854_4420)">
<path d="M9.33333 29.3332V23.9998H0L5.13333 15.9998H2.66667L12 2.6665L16 8.39984L20 2.6665L29.3333 15.9998H26.8667L32 23.9998H22.6667V29.3332H17.3333V23.9998H14.6667V29.3332H9.33333ZM22.3 21.3332H27.1333L21.9667 13.3332H24.2L20 7.33317L17.6333 10.6998L21.3333 15.9998H18.8667L22.3 21.3332ZM4.86667 21.3332H19.1333L13.9667 13.3332H16.2L12 7.33317L7.8 13.3332H10.0333L4.86667 21.3332ZM4.86667 21.3332H10.0333H7.8H16.2H13.9667H19.1333H4.86667ZM22.3 21.3332H18.8667H21.3333H17.6333H24.2H21.9667H27.1333H22.3Z" fill="white"/>
</g>
</svg>
