<svg width="28" height="28" viewBox="0 0 28 28" fill="none" xmlns="http://www.w3.org/2000/svg">
<path d="M10.0669 26C22.1394 26 28.7444 15.9956 28.7444 7.32248C28.7444 7.04123 28.7381 6.75373 28.7256 6.47248C30.0105 5.54328 31.1193 4.39234 32 3.07373C30.8034 3.60613 29.5329 3.95384 28.2319 4.10498C29.6017 3.28388 30.6274 1.99396 31.1187 0.474356C29.8301 1.23808 28.4208 1.77682 26.9513 2.06748C25.9611 1.01541 24.652 0.318822 23.2262 0.0854013C21.8005 -0.148019 20.3376 0.0947339 19.0637 0.776129C17.7897 1.45752 16.7757 2.53961 16.1785 3.85508C15.5812 5.17056 15.4339 6.64615 15.7594 8.05373C13.15 7.92279 10.5972 7.24494 8.26664 6.06413C5.93604 4.88332 3.87959 3.22592 2.23062 1.19936C1.39253 2.64432 1.13608 4.35419 1.51337 5.98145C1.89067 7.60872 2.87342 9.03126 4.26188 9.95998C3.2195 9.92689 2.19997 9.64624 1.2875 9.14123V9.22248C1.28657 10.7389 1.8108 12.2088 2.77108 13.3824C3.73136 14.5559 5.06843 15.3607 6.555 15.66C5.58941 15.9242 4.57598 15.9627 3.59313 15.7725C4.01261 17.0766 4.82876 18.2172 5.92769 19.0351C7.02662 19.853 8.35349 20.3075 9.72313 20.335C7.3979 22.1615 4.52557 23.1522 1.56875 23.1475C1.04438 23.1467 0.520532 23.1145 0 23.0512C3.00381 24.9783 6.49804 26.0018 10.0669 26Z" fill="#007E51"/>
</svg>
