<svg width="40" height="41" viewBox="0 0 40 41" fill="none" xmlns="http://www.w3.org/2000/svg">
<circle cx="20" cy="20.0386" r="20" fill="#007E51"/>
<g filter="url(#filter0_d_477_80561)">
<path d="M21 26.5386C21 27.0909 20.5523 27.5386 20 27.5386C19.4477 27.5386 19 27.0909 19 26.5386H21ZM19.2929 12.8315C19.6834 12.4409 20.3166 12.4409 20.7071 12.8315L27.0711 19.1954C27.4616 19.586 27.4616 20.2191 27.0711 20.6096C26.6805 21.0002 26.0474 21.0002 25.6569 20.6096L20 14.9528L14.3431 20.6096C13.9526 21.0002 13.3195 21.0002 12.9289 20.6096C12.5384 20.2191 12.5384 19.586 12.9289 19.1954L19.2929 12.8315ZM19 26.5386V19.3544H21V26.5386H19ZM19 19.3544L19 13.5386H21L21 19.3544H19Z" fill="#FFFAF5"/>
</g>
<defs>
<filter id="filter0_d_477_80561" x="3" y="5.03857" width="34" height="34" filterUnits="userSpaceOnUse" color-interpolation-filters="sRGB">
<feFlood flood-opacity="0" result="BackgroundImageFix"/>
<feColorMatrix in="SourceAlpha" type="matrix" values="0 0 0 0 0 0 0 0 0 0 0 0 0 0 0 0 0 0 127 0" result="hardAlpha"/>
<feOffset dy="2"/>
<feGaussianBlur stdDeviation="2"/>
<feComposite in2="hardAlpha" operator="out"/>
<feColorMatrix type="matrix" values="0 0 0 0 0 0 0 0 0 0 0 0 0 0 0 0 0 0 0.25 0"/>
<feBlend mode="normal" in2="BackgroundImageFix" result="effect1_dropShadow_477_80561"/>
<feBlend mode="normal" in="SourceGraphic" in2="effect1_dropShadow_477_80561" result="shape"/>
</filter>
</defs>
</svg>
