<svg width="28" height="28" viewBox="0 0 28 28" fill="none" xmlns="http://www.w3.org/2000/svg">
<path d="M16.0003 5.33325C16.0003 5.33325 7.66105 5.33321 5.58105 5.89054C4.43305 6.19721 3.53095 7.10065 3.22428 8.24731C2.66695 10.3273 2.66699 15.9999 2.66699 15.9999C2.66699 15.9999 2.66695 21.6725 3.22428 23.7525C3.53095 24.9005 4.43439 25.8026 5.58105 26.1093C7.66105 26.6666 16.0003 26.6666 16.0003 26.6666C16.0003 26.6666 24.3396 26.6666 26.4196 26.1093C27.5663 25.8026 28.4697 24.8992 28.7764 23.7525C29.3337 21.6725 29.3337 15.9999 29.3337 15.9999C29.3337 15.9999 29.3337 10.3273 28.7764 8.24731C28.4697 7.10065 27.5663 6.19721 26.4196 5.89054C24.3396 5.33321 16.0003 5.33325 16.0003 5.33325ZM16.0003 7.99992C19.843 7.99992 24.6548 8.17806 25.7295 8.46606C25.9548 8.52606 26.1395 8.71075 26.2008 8.93742C26.5222 10.1348 26.667 13.7893 26.667 15.9999C26.667 18.2106 26.5222 21.8638 26.2008 23.0624C26.1408 23.2878 25.9562 23.4724 25.7295 23.5338C24.6562 23.8218 19.843 23.9999 16.0003 23.9999C12.159 23.9999 7.34716 23.8218 6.27116 23.5338C6.04583 23.4738 5.86114 23.2891 5.7998 23.0624C5.47847 21.8651 5.33366 18.2106 5.33366 15.9999C5.33366 13.7893 5.47847 10.1348 5.7998 8.93481C5.8598 8.71081 6.04449 8.52606 6.27116 8.46606C7.34449 8.17806 12.1577 7.99992 16.0003 7.99992ZM13.3337 11.3801V20.6197L21.3337 15.9999L13.3337 11.3801Z" fill="#007E51"/>
</svg>
